<?xml version="1.0" encoding="UTF-8"?>
<svg width="98px" height="304px" viewBox="0 0 98 304" version="1.1" xmlns="http://www.w3.org/2000/svg" xmlns:xlink="http://www.w3.org/1999/xlink">
    <!-- Generator: Sketch 49 (51002) - http://www.bohemiancoding.com/sketch -->
    <title>Badminton</title>
    <desc>Created with Sketch.</desc>
    <defs></defs>
    <g id="Page-1" stroke="none" stroke-width="1" fill="none" fill-rule="evenodd">
        <g id="Racquettes-Home" transform="translate(-522.000000, -1982.000000)" fill="#fff">
            <g id="Section-3" transform="translate(1.000000, 1775.000000)">
                <g id="Rackets" transform="translate(222.000000, 207.000000)">
                    <path d="M382.810192,50.3658746 L382.810192,39.8463551 L392.201495,39.8463551 C392.212572,39.9077083 392.221946,39.9690615 392.233875,40.0295626 C392.356582,40.6754756 392.467358,41.3239449 392.561945,41.9724143 C392.573874,42.0499579 392.581544,42.1292058 392.591769,42.2067495 C392.681243,42.8466976 392.761343,43.4866457 392.823548,44.1274459 C392.843147,44.327696 392.853372,44.5305024 392.869563,44.7324567 C392.913873,45.2531069 392.957332,45.7746092 392.982896,46.2969636 C393.018685,47.0332022 393.039136,47.7728493 393.039136,48.5184612 L393.039136,50.3658746 L382.810192,50.3658746 Z M382.810192,63.8831803 L393.039136,63.8831803 L393.039136,53.3628086 L382.810192,53.3628086 L382.810192,63.8831803 Z M382.810192,77.4013381 L393.039136,77.4013381 L393.039136,66.8809664 L382.810192,66.8809664 L382.810192,77.4013381 Z M393.039136,82.2755099 C393.039136,83.0202698 393.018685,83.7590647 392.982896,84.4953033 C392.959036,84.9920938 392.91643,85.4897366 392.875528,85.9865272 C392.857633,86.2106368 392.845703,86.4373029 392.823548,86.6614125 C392.764751,87.2749446 392.68806,87.8884767 392.602847,88.5011567 C392.589213,88.6042642 392.578135,88.709076 392.563649,88.8121834 C392.471619,89.441906 392.363399,90.0707764 392.245805,90.6979426 C392.232171,90.7712256 392.220241,90.8445086 392.206607,90.9177916 L382.810192,90.9177916 L382.810192,80.3982721 L393.039136,80.3982721 L393.039136,82.2755099 Z M347.385529,153.337868 C345.717063,145.907312 342.641733,138.954801 338.25157,132.809254 C337.367913,131.571112 336.439946,130.403697 335.486415,129.282296 C335.632128,129.31979 335.781251,129.34791 335.926965,129.383699 C336.384557,129.49618 336.843854,129.604401 337.305708,129.703247 C337.63889,129.774826 337.974628,129.842144 338.310367,129.906906 C338.626506,129.967407 338.943498,130.023647 339.261341,130.078184 L339.261341,130.102895 L340.012066,130.211116 C340.143294,130.232419 340.276226,130.248609 340.408306,130.26906 L340.54635,130.288659 L342.258275,130.534924 L342.258275,130.504248 C342.261684,130.504248 342.263388,130.5051 342.265945,130.5051 C342.599979,130.541741 342.936569,130.568157 343.272308,130.59713 C343.699224,130.634623 344.125288,130.667856 344.5505,130.695124 C344.825737,130.711315 345.100122,130.728357 345.376212,130.739435 C346.093703,130.771816 346.808639,130.794823 347.518461,130.794823 C348.228284,130.794823 348.943219,130.771816 349.659859,130.739435 C349.9368,130.728357 350.212038,130.711315 350.487275,130.695124 C350.911635,130.667856 351.336847,130.634623 351.762911,130.59713 C352.101205,130.567305 352.441204,130.540889 352.777795,130.504248 L352.777795,130.534924 L354.490572,130.288659 L354.62606,130.26906 C354.758992,130.248609 354.892776,130.232419 355.026561,130.211116 L355.775581,130.102895 L355.775581,130.078184 C356.092573,130.023647 356.409564,129.967407 356.725704,129.906906 C357.062294,129.842144 357.398033,129.774826 357.732067,129.702395 C358.130863,129.618035 358.52625,129.525153 358.92249,129.429714 C358.124898,130.393471 357.344349,131.388756 356.597885,132.434317 C352.133586,138.682972 349.033545,145.765859 347.385529,153.337868 Z M339.626052,300.680164 L339.626052,300.188486 L355.035934,291.910063 L355.035934,300.680164 L339.626052,300.680164 Z M339.626052,290.299541 L355.035934,282.021971 L355.035934,288.823656 L354.903854,288.579095 L339.626052,296.785939 L339.626052,290.299541 Z M339.626052,280.412301 L355.035934,272.133878 L355.035934,278.934711 L354.903854,278.69015 L339.626052,286.897847 L339.626052,280.412301 Z M339.626052,270.523356 L355.035934,262.245785 L355.035934,269.04747 L354.903854,268.80291 L339.626052,277.009754 L339.626052,270.523356 Z M339.626052,260.636115 L353.841251,252.999345 L355.035934,255.333323 L355.035934,259.158526 L354.903854,258.913965 L339.626052,267.121661 L339.626052,260.636115 Z M339.626052,255.333323 L347.330993,240.277927 L352.475289,250.33048 L339.626052,257.233568 L339.626052,255.333323 Z M312.225878,80.3982721 L312.225878,90.9177916 L302.830315,90.9177916 C302.816681,90.8436565 302.803899,90.7686692 302.790265,90.6945341 C302.672671,90.0690722 302.564451,89.4402017 302.473274,88.8113313 C302.458787,88.7107802 302.448562,88.6085249 302.434076,88.5071216 C302.349715,87.8927374 302.272171,87.2766489 302.212522,86.6614125 C302.191219,86.4390071 302.179289,86.2131932 302.161395,85.9899357 C302.120493,85.4914408 302.077886,84.992946 302.053174,84.4944511 C302.017385,83.7590647 301.996934,83.0194176 301.996934,82.2755099 L301.996934,80.3982721 L312.225878,80.3982721 Z M301.996934,77.4013381 L312.225878,77.4013381 L312.225878,66.8809664 L301.996934,66.8809664 L301.996934,77.4013381 Z M301.996934,63.8831803 L312.225878,63.8831803 L312.225878,53.3628086 L301.996934,53.3628086 L301.996934,63.8831803 Z M301.996934,48.5184612 C301.996934,47.7728493 302.017385,47.0332022 302.053174,46.2969636 C302.07959,45.7746092 302.123049,45.2531069 302.166507,44.7324567 C302.18355,44.5305024 302.193776,44.327696 302.213374,44.1274459 C302.27558,43.4866457 302.354828,42.8466976 302.444301,42.2067495 C302.455379,42.1292058 302.463048,42.0499579 302.474126,41.9724143 C302.568712,41.3247971 302.680341,40.6780319 302.802195,40.0329711 C302.814125,39.9707657 302.823498,39.9085604 302.835428,39.8463551 L312.225878,39.8463551 L312.225878,50.3658746 L301.996934,50.3658746 L301.996934,48.5184612 Z M382.810192,26.3290494 L387.244666,26.3290494 C387.29835,26.4244877 387.355443,26.5190739 387.409127,26.6145123 C387.805366,27.3354125 388.188824,28.0622776 388.544161,28.8010726 C388.608071,28.9331524 388.663459,29.0686408 388.724812,29.1998685 C389.034987,29.8594155 389.329823,30.5240753 389.606765,31.1964042 C389.705612,31.4358522 389.797642,31.6787087 389.89308,31.920713 C390.129971,32.5257238 390.355785,33.1349953 390.567113,33.7502317 C390.640396,33.964968 390.714531,34.1788521 390.785258,34.3944404 C391.040896,35.177546 391.280344,35.9674686 391.492524,36.7642083 C391.500193,36.7923285 391.508714,36.8204487 391.516384,36.8494211 L382.810192,36.8494211 L382.810192,26.3290494 Z M369.292887,36.8494211 L379.812406,36.8494211 L379.812406,26.3290494 L369.292887,26.3290494 L369.292887,36.8494211 Z M369.292887,90.9177916 L379.812406,90.9177916 L379.812406,80.3982721 L369.292887,80.3982721 L369.292887,90.9177916 Z M369.292887,122.240311 L369.292887,107.432883 L379.812406,107.432883 L379.812406,114.322338 C376.71833,117.440274 373.176886,120.115956 369.292887,122.240311 Z M315.223664,114.322338 L315.223664,107.432883 L325.744036,107.432883 L325.744036,122.240311 C321.860037,120.115956 318.318593,117.440274 315.223664,114.322338 Z M315.223664,104.435097 L325.744036,104.435097 L325.744036,93.9147256 L315.223664,93.9147256 L315.223664,104.435097 Z M315.223664,50.3658746 L325.744036,50.3658746 L325.744036,39.8463551 L315.223664,39.8463551 L315.223664,50.3658746 Z M325.744036,8.55366036 L325.744036,23.3312633 L315.223664,23.3312633 L315.223664,16.4724854 C318.318593,13.352845 321.860037,10.6780153 325.744036,8.55366036 Z M355.775581,90.9177916 L366.295953,90.9177916 L366.295953,80.3982721 L355.775581,80.3982721 L355.775581,90.9177916 Z M355.775581,104.435097 L366.295953,104.435097 L366.295953,93.9147256 L355.775581,93.9147256 L355.775581,104.435097 Z M342.258275,104.435097 L352.777795,104.435097 L352.777795,93.9147256 L342.258275,93.9147256 L342.258275,104.435097 Z M328.74097,50.3658746 L339.260489,50.3658746 L339.260489,39.8463551 L328.74097,39.8463551 L328.74097,50.3658746 Z M328.741822,36.8494211 L339.261341,36.8494211 L339.261341,26.3290494 L328.741822,26.3290494 L328.741822,36.8494211 Z M342.258275,90.9177916 L352.777795,90.9177916 L352.777795,80.3982721 L342.258275,80.3982721 L342.258275,90.9177916 Z M342.258275,77.4013381 L352.777795,77.4013381 L352.777795,66.8809664 L342.258275,66.8809664 L342.258275,77.4013381 Z M342.258275,63.8831803 L352.777795,63.8831803 L352.777795,53.3628086 L342.258275,53.3628086 L342.258275,63.8831803 Z M342.258275,50.3658746 L352.777795,50.3658746 L352.777795,39.8463551 L342.258275,39.8463551 L342.258275,50.3658746 Z M342.258275,36.8494211 L352.777795,36.8494211 L352.777795,26.3290494 L342.258275,26.3290494 L342.258275,36.8494211 Z M315.223664,36.8494211 L325.744036,36.8494211 L325.744036,26.3290494 L315.223664,26.3290494 L315.223664,36.8494211 Z M328.74097,63.8840324 L339.260489,63.8840324 L339.260489,53.3636607 L328.74097,53.3636607 L328.74097,63.8840324 Z M328.74097,77.4013381 L339.260489,77.4013381 L339.260489,66.8809664 L328.74097,66.8809664 L328.74097,77.4013381 Z M328.74097,90.9177916 L339.260489,90.9177916 L339.260489,80.3982721 L328.74097,80.3982721 L328.74097,90.9177916 Z M328.74097,104.435097 L339.260489,104.435097 L339.260489,93.9147256 L328.74097,93.9147256 L328.74097,104.435097 Z M369.292887,104.435097 L379.812406,104.435097 L379.812406,93.9147256 L369.292887,93.9147256 L369.292887,104.435097 Z M355.775581,77.4013381 L366.295953,77.4013381 L366.295953,66.8809664 L355.775581,66.8809664 L355.775581,77.4013381 Z M355.775581,63.8831803 L366.295953,63.8831803 L366.295953,53.3628086 L355.775581,53.3628086 L355.775581,63.8831803 Z M355.775581,50.3658746 L366.295953,50.3658746 L366.295953,39.8463551 L355.775581,39.8463551 L355.775581,50.3658746 Z M355.775581,36.8494211 L366.295953,36.8494211 L366.295953,26.3290494 L355.775581,26.3290494 L355.775581,36.8494211 Z M379.812406,16.4716333 L379.812406,23.3312633 L369.292887,23.3312633 L369.292887,8.55366036 C373.176886,10.6780153 376.71833,13.352845 379.812406,16.4716333 Z M385.23194,23.0517653 C385.240461,23.0653993 385.249835,23.0773291 385.258356,23.0892589 C385.31204,23.169359 385.360611,23.2520154 385.413443,23.3312633 L382.810192,23.3312633 L382.810192,19.8060099 C383.66232,20.8515709 384.473546,21.9329213 385.23194,23.0517653 Z M356.033776,3.80730768 C356.710365,3.93512687 357.38099,4.08169288 358.048206,4.23933655 C358.243344,4.28620359 358.440185,4.3262536 358.63447,4.37482489 C359.444844,4.57848347 360.249253,4.801741 361.045992,5.04800598 C361.339977,5.14003579 361.626292,5.24655179 361.916867,5.34369437 C362.394911,5.5030423 362.87125,5.66324235 363.343329,5.83792858 C363.78388,6.00153715 364.219317,6.17877976 364.65305,6.35602238 C364.95726,6.47958093 365.261469,6.60484374 365.563123,6.73436719 C365.809388,6.84173531 366.051392,6.95592045 366.295953,7.06669709 L366.295953,23.3312633 L355.775581,23.3312633 L355.775581,3.76129277 C355.861646,3.77663107 355.948563,3.79111725 356.033776,3.80730768 Z M342.387799,3.29347453 C343.131707,3.20911386 343.873058,3.14690852 344.612705,3.09918935 C344.729446,3.0915202 344.843632,3.07959041 344.960373,3.07277339 C346.668038,2.9756308 348.369737,2.9756308 350.077401,3.07277339 C350.191587,3.07959041 350.304067,3.0915202 350.418253,3.09833723 C351.160456,3.14690852 351.903512,3.20911386 352.649976,3.29432665 C352.692582,3.29858729 352.735189,3.30455219 352.777795,3.30966496 L352.777795,23.3312633 L342.258275,23.3312633 L342.258275,3.30966496 C342.301734,3.30455219 342.34434,3.29858729 342.387799,3.29347453 Z M329.472095,6.73607144 C329.774601,6.60484374 330.079663,6.4787288 330.385577,6.35517025 C330.81931,6.17792764 331.253895,6.00153715 331.694445,5.83792858 C332.161411,5.66494661 332.632638,5.50559868 333.104717,5.34880714 C333.40211,5.2499603 333.694389,5.14088792 333.993486,5.04715385 C334.78767,4.80088887 335.589522,4.5793356 336.398191,4.37567702 C336.596737,4.3262536 336.798692,4.28449933 336.998942,4.23678017 C337.662749,4.08084075 338.329113,3.93512687 339.00059,3.80730768 C339.087507,3.79111725 339.174424,3.77663107 339.261341,3.76129277 L339.261341,23.3312633 L328.74097,23.3312633 L328.74097,7.06669709 C328.984678,6.95592045 329.226683,6.84258744 329.472095,6.73607144 Z M309.801574,23.0568781 C310.56082,21.9363298 311.372898,20.8532752 312.225878,19.8060099 L312.225878,23.3312633 L309.623479,23.3312633 C309.676311,23.2520154 309.724882,23.1685068 309.778566,23.0884068 C309.786236,23.0790334 309.793905,23.0679557 309.801574,23.0568781 Z M303.544398,36.7642083 C303.756578,35.9674686 303.996026,35.177546 304.251665,34.3944404 C304.322391,34.1788521 304.395674,33.964968 304.468957,33.7502317 C304.680285,33.1358475 304.906099,32.526576 305.14299,31.9215651 C305.238429,31.6787087 305.331311,31.4350001 305.430158,31.1947 C305.707099,30.5240753 306.001935,29.8594155 306.311258,29.2015727 C306.373463,29.0694929 306.428851,28.9331524 306.491909,28.8010726 C306.848098,28.0622776 307.230704,27.3354125 307.627795,26.6145123 C307.680627,26.5190739 307.738572,26.4244877 307.792256,26.3290494 L312.225878,26.3290494 L312.225878,36.8494211 L303.519687,36.8494211 C303.527356,36.8204487 303.535877,36.7923285 303.544398,36.7642083 Z M315.223664,63.8840324 L325.744036,63.8840324 L325.744036,53.3636607 L315.223664,53.3636607 L315.223664,63.8840324 Z M315.223664,77.4013381 L325.744036,77.4013381 L325.744036,66.8809664 L315.223664,66.8809664 L315.223664,77.4013381 Z M315.223664,90.9177916 L325.744036,90.9177916 L325.744036,80.3982721 L315.223664,80.3982721 L315.223664,90.9177916 Z M306.482536,101.971595 C306.414365,101.82929 306.353864,101.681872 306.286546,101.538714 C305.983189,100.890245 305.692613,100.235811 305.421636,99.5754116 C305.321937,99.3359636 305.229907,99.092255 305.134469,98.8502507 C304.896725,98.2435356 304.670912,97.6317077 304.459584,97.013915 C304.387153,96.8034394 304.31387,96.5921116 304.244848,96.3799318 C303.984096,95.5806358 303.739536,94.7745227 303.523947,93.9598884 C303.520539,93.9454022 303.515426,93.9300639 303.511165,93.9147256 L312.225878,93.9147256 L312.225878,104.435097 L307.775214,104.435097 C307.724938,104.345624 307.671254,104.258707 307.621831,104.169233 C307.223035,103.444925 306.840429,102.714651 306.482536,101.971595 Z M309.839068,107.789925 C309.816912,107.757544 309.793905,107.726015 309.772602,107.693635 C309.713805,107.608422 309.661825,107.518096 309.60388,107.432883 L312.225878,107.432883 L312.225878,110.987961 C311.386532,109.957739 310.588088,108.891726 309.839068,107.789925 Z M336.991273,126.554635 C336.795283,126.507768 336.596737,126.467718 336.400748,126.418294 C335.591226,126.215488 334.78767,125.991378 333.99093,125.745113 C333.697798,125.653935 333.411483,125.547419 333.121759,125.450277 C332.642864,125.290929 332.165672,125.129877 331.692741,124.95519 C331.253043,124.791582 330.820162,124.616044 330.386429,124.439653 C330.080515,124.31439 329.775453,124.189127 329.471243,124.057048 C329.225831,123.950532 328.984678,123.838051 328.74097,123.727274 L328.74097,107.432883 L339.261341,107.432883 L339.261341,127.032678 C339.174424,127.016488 339.087507,127.002854 339.001442,126.985811 C338.326557,126.858844 337.657637,126.712278 336.991273,126.554635 Z M350.418253,127.694782 C350.304067,127.702451 350.191587,127.714381 350.077401,127.720346 C348.369737,127.81834 346.668038,127.81834 344.960373,127.720346 C344.844484,127.714381 344.731151,127.701599 344.616113,127.694782 C343.874762,127.646211 343.132559,127.584005 342.387799,127.500497 C342.34434,127.495384 342.301734,127.488567 342.258275,127.483454 L342.258275,107.432883 L352.777795,107.432883 L352.777795,127.483454 C352.735189,127.488567 352.692582,127.495384 352.649976,127.499644 C351.903512,127.584005 351.159604,127.646211 350.418253,127.694782 Z M365.562271,124.058752 C365.261469,124.189127 364.958964,124.313538 364.656459,124.437097 C364.220169,124.614339 363.78388,124.791582 363.340773,124.956043 C362.874659,125.129025 362.403432,125.28752 361.931353,125.444312 C361.634813,125.544011 361.343385,125.652231 361.04514,125.745113 C360.248401,125.99223 359.445696,126.215488 358.636175,126.418294 C358.441037,126.467718 358.241639,126.507768 358.04565,126.554635 C357.378434,126.712278 356.709513,126.858844 356.033776,126.985811 C355.948563,127.002854 355.861646,127.016488 355.775581,127.032678 L355.775581,107.432883 L366.295953,107.432883 L366.295953,123.727274 C366.051392,123.838051 365.808536,123.952236 365.562271,124.058752 Z M385.194446,107.794186 C384.446278,108.895135 383.648686,109.958591 382.810192,110.987961 L382.810192,107.432883 L385.43219,107.432883 C385.375098,107.518096 385.323118,107.60757 385.265173,107.692782 C385.242166,107.726868 385.217454,107.760101 385.194446,107.794186 Z M391.512123,93.9598884 C391.296535,94.7745227 391.052826,95.5797836 390.792075,96.3790796 C390.723053,96.5921116 390.64977,96.8025872 390.577339,97.013915 C390.366011,97.6317077 390.139345,98.2443877 389.901601,98.8511028 C389.807015,99.0931072 389.714985,99.3342594 389.616138,99.5728552 C389.343457,100.237515 389.051177,100.894506 388.746116,101.546384 C388.680502,101.686985 388.621705,101.830994 388.554387,101.969891 C388.197345,102.712947 387.813036,103.444072 387.41424,104.169233 C387.365668,104.258707 387.311984,104.345624 387.261709,104.435097 L382.810192,104.435097 L382.810192,93.9147256 L391.525757,93.9147256 C391.521496,93.9300639 391.516384,93.9454022 391.512123,93.9598884 Z M369.292887,77.4013381 L379.812406,77.4013381 L379.812406,66.8809664 L369.292887,66.8809664 L369.292887,77.4013381 Z M369.292887,63.8831803 L379.812406,63.8831803 L379.812406,53.3628086 L369.292887,53.3628086 L369.292887,63.8831803 Z M369.292887,50.3658746 L379.812406,50.3658746 L379.812406,39.8463551 L369.292887,39.8463551 L369.292887,50.3658746 Z M395.965344,45.9143582 C395.961083,45.8342582 395.95171,45.7541581 395.947449,45.673206 C395.900582,44.8713536 395.83582,44.074614 395.750607,43.2829871 C395.744643,43.2327115 395.736121,43.1807317 395.731008,43.1304562 C395.638979,42.3073006 395.52735,41.4918141 395.39527,40.6822926 C395.384192,40.6141223 395.369706,40.5468042 395.358629,40.4777819 C395.323691,40.2664541 395.283641,40.0568307 395.245296,39.8463551 L395.287902,39.8463551 L395.061236,38.820393 C395.039081,38.7087643 395.011812,38.5988397 394.988805,38.4889152 L394.885698,38.0253576 L394.626651,36.8494211 L394.608756,36.8494211 C394.487754,36.3594475 394.35397,35.8762909 394.218481,35.3939865 C394.119635,35.0420577 394.025048,34.6892767 393.918532,34.3390521 C393.822242,34.0246169 393.715726,33.7152945 393.613471,33.4034156 C393.485651,33.013141 393.356128,32.6245707 393.218935,32.2385567 C393.118384,31.9573545 393.015277,31.6787087 392.909613,31.400915 C392.743448,30.9603648 392.569614,30.522371 392.390667,30.0869337 C392.300341,29.8679368 392.212572,29.6489399 392.118838,29.4324994 C391.842749,28.7874385 391.555582,28.1466383 391.25052,27.5135072 C391.247963,27.5092466 391.246259,27.5041338 391.244555,27.4998732 C391.05453,27.1061901 390.853428,26.7176197 390.653178,26.3290494 L390.741799,26.3290494 L389.423557,24.0743188 L389.417593,24.0640933 L388.988972,23.3312633 L388.972782,23.3312633 C388.798948,23.0466525 388.612332,22.7705631 388.432533,22.4893609 C388.061005,21.9065053 387.676695,21.331319 387.279603,20.7638018 C386.981359,20.3377378 386.68567,19.9091174 386.374644,19.493279 C386.064469,19.0782927 385.738104,18.6769404 385.414295,18.2713275 C385.199559,18.0029072 384.986527,17.7327826 384.766678,17.4694751 C384.426679,17.0613058 384.078159,16.6625099 383.725378,16.2671226 C383.508937,16.0242661 383.289088,15.783966 383.067535,15.5453702 C382.98147,15.4516361 382.897962,15.3553457 382.810192,15.2624637 L382.810192,15.2351956 L382.388389,14.7997582 L379.812406,12.1368584 L379.812406,12.3362563 C376.625448,9.48247983 373.101047,7.08118326 369.292887,5.1647475 L369.292887,5.14174005 L368.441611,4.73357076 L366.295953,3.70590445 L366.295953,3.7774832 C365.630441,3.49883736 364.958964,3.23552983 364.282374,2.98670846 C364.215056,2.96199675 364.147738,2.93813717 364.08042,2.91257333 C363.424282,2.67482963 362.763882,2.45071998 362.097518,2.24024438 C362.019975,2.2163848 361.944135,2.18996883 361.86574,2.16610925 C361.168699,1.95052088 360.465693,1.74941868 359.758427,1.56535904 C359.544543,1.50997073 359.32725,1.46225156 359.112514,1.40941963 C358.654069,1.29779087 358.194772,1.18957062 357.732919,1.09072378 C357.396328,1.0182929 357.058034,0.950974792 356.718035,0.88536094 C356.405304,0.824859855 356.090868,0.769471539 355.775581,0.71493535 L355.775581,0.691075767 L355.036786,0.584559774 C354.893629,0.562404447 354.747915,0.542805504 354.603905,0.522354433 L354.490572,0.505311874 L354.487164,0.505311874 L352.777795,0.259046897 L352.777795,0.288871375 C352.428422,0.250525617 352.076494,0.223257523 351.725417,0.193433045 C351.330882,0.158495799 350.936346,0.127819192 350.542663,0.103107482 C350.230784,0.0835085391 349.918906,0.0656138521 349.605323,0.0519798049 C349.033545,0.0272680944 348.461767,0.0127819192 347.889989,0.0085212795 C347.765578,0.00766915155 347.642872,0 347.518461,0 C347.394051,0 347.272196,0.00766915155 347.147786,0.0085212795 C346.576008,0.0127819192 346.003378,0.0272680944 345.430748,0.0519798049 C345.118017,0.0656138521 344.80699,0.0835085391 344.495963,0.103107482 C344.100576,0.127819192 343.705189,0.158495799 343.309801,0.193433045 C342.958725,0.223257523 342.607648,0.251377745 342.258275,0.288871375 L342.258275,0.259046897 L340.548907,0.505311874 L340.545498,0.505311874 L340.430461,0.522354433 C340.287303,0.542805504 340.143294,0.562404447 340.000988,0.583707646 L339.261341,0.691075767 L339.261341,0.71493535 C338.945202,0.769471539 338.630767,0.824859855 338.317184,0.886213068 C337.978889,0.950974792 337.640594,1.0182929 337.304856,1.09072378 C336.84215,1.18957062 336.382853,1.29779087 335.924408,1.40941963 C335.709672,1.46225156 335.492379,1.50997073 335.278495,1.56535904 C334.571229,1.74941868 333.869076,1.95052088 333.172035,2.16610925 C333.092787,2.18996883 333.015244,2.2163848 332.936848,2.24109651 C332.272188,2.45071998 331.613493,2.67482963 330.959059,2.91257333 C330.890036,2.93728504 330.821014,2.96284888 330.75114,2.98841272 C330.076254,3.23638195 329.40563,3.49883736 328.74097,3.7774832 L328.74097,3.70675658 L326.595312,4.73357076 L325.744036,5.14174005 L325.744036,5.1647475 C321.935876,7.08118326 318.411475,9.48247983 315.223664,12.3362563 L315.223664,12.1368584 L312.647681,14.7997582 L312.225878,15.2351956 L312.225878,15.2624637 C312.138109,15.3553457 312.055452,15.4516361 311.968535,15.5462223 C311.746982,15.783966 311.527985,16.0242661 311.311545,16.2662704 C310.958764,16.6625099 310.610243,17.0613058 310.271096,17.468623 C310.049543,17.7327826 309.836511,18.0029072 309.621775,18.2730318 C309.297966,18.6769404 308.972453,19.0782927 308.662279,19.493279 C308.340174,19.9227515 308.034261,20.365858 307.726642,20.8072603 C307.340628,21.3602913 306.967396,21.9201394 306.60439,22.4893609 C306.424591,22.7705631 306.237975,23.0458004 306.064141,23.3312633 L306.047098,23.3312633 L305.61933,24.0640933 C305.617626,24.0675018 305.615069,24.0709103 305.612513,24.0743188 L304.295123,26.3290494 L304.382892,26.3290494 C304.182642,26.7184719 303.98154,27.1070422 303.792368,27.5007253 C303.790663,27.5032817 303.790663,27.504986 303.789811,27.5066902 C303.483045,28.1423777 303.195026,28.7848821 302.917232,29.4324994 C302.82435,29.6489399 302.735729,29.8679368 302.646255,30.0869337 C302.466457,30.522371 302.293475,30.9603648 302.126457,31.400915 C302.021646,31.6787087 301.917686,31.9573545 301.817987,32.2385567 C301.680795,32.6245707 301.550419,33.013141 301.4226,33.4034156 C301.320344,33.7152945 301.214681,34.0246169 301.11839,34.3390521 C301.011874,34.6892767 300.917288,35.0420577 300.818441,35.3939865 C300.682101,35.8762909 300.548316,36.3594475 300.427314,36.8494211 L300.40942,36.8494211 L300.150373,38.0253576 L300.048117,38.4889152 C300.02511,38.5988397 299.997842,38.7087643 299.974834,38.820393 L299.748168,39.8463551 L299.791627,39.8463551 C299.752429,40.0602392 299.711527,40.2741233 299.675737,40.4897117 C299.665512,40.551917 299.65273,40.6149745 299.642504,40.6780319 C299.509573,41.4943705 299.395387,42.316674 299.303358,43.1457945 C299.299097,43.1909573 299.291428,43.2352679 299.286315,43.2804307 C299.201102,44.0754661 299.135488,44.8773185 299.088621,45.6834315 C299.084361,45.760123 299.075839,45.8368146 299.071579,45.9135061 C299.025564,46.7758596 299,47.6441779 299,48.5184612 L299,50.3658746 L299,53.3636607 L299,63.8985186 L299,66.8809664 L299,77.4013381 L299,80.3982721 L299,82.2755099 C299,83.148089 299.025564,84.013851 299.070727,84.8745002 C299.074987,84.9494875 299.083509,85.0236226 299.087769,85.0977577 C299.134636,85.9038708 299.199398,86.7057232 299.284611,87.5007585 C299.289724,87.5442171 299.297393,87.5876756 299.301653,87.630282 C299.392831,88.4585503 299.506164,89.2800017 299.639096,90.094636 C299.649321,90.1576935 299.662103,90.2207509 299.672329,90.2838084 C299.708118,90.4959883 299.747316,90.7064639 299.785662,90.9177916 L299.743056,90.9177916 L299.973982,91.9650569 C299.99699,92.0809463 300.02511,92.1951314 300.04897,92.3101687 L300.143556,92.738789 L300.402603,93.9147256 L300.420497,93.9147256 C300.543204,94.409812 300.676988,94.8980813 300.81418,95.3863506 C300.913027,95.7374273 301.007613,96.0893561 301.113277,96.4378765 C301.211272,96.7565723 301.317788,97.0718597 301.421748,97.3879991 C301.547863,97.773161 301.676534,98.1566185 301.812022,98.5383719 C301.913425,98.8229826 302.018237,99.1058891 302.124753,99.3879434 C302.290066,99.8250851 302.462196,100.258818 302.639438,100.691699 C302.731468,100.9124 302.82009,101.135658 302.914676,101.355507 C303.361191,102.398511 303.847756,103.424474 304.368406,104.435097 L304.279785,104.435097 L305.59547,106.688976 L306.029203,107.432883 L306.044542,107.432883 C306.226897,107.731128 306.422887,108.020852 306.612059,108.315688 C306.837873,108.670173 307.05687,109.027215 307.292057,109.375735 C307.732607,110.027613 308.187644,110.667561 308.658018,111.295579 C308.964784,111.705453 309.287741,112.102545 309.607289,112.503045 C309.827138,112.77743 310.04443,113.054371 310.271096,113.325348 C310.608539,113.729257 310.954503,114.125496 311.304728,114.519179 C311.524577,114.765444 311.746982,115.009153 311.971944,115.252009 C312.058009,115.344039 312.139813,115.439478 312.225878,115.531507 L312.225878,115.558776 L312.647681,115.994213 L315.223664,118.657965 L315.223664,118.456863 C318.411475,121.310639 321.935024,123.711936 325.744036,125.628372 L325.744036,125.653083 L326.595312,126.0604 L328.74097,127.087215 L328.74097,127.015636 C328.984678,127.117039 329.229239,127.21759 329.4738,127.316437 C331.732791,129.395629 333.865667,131.825046 335.81278,134.551003 C342.357122,143.713935 345.829544,154.77626 345.851699,166.544999 L346.017864,236.264404 L336.628266,254.610719 L336.628266,258.843238 L336.497038,258.913965 L336.628266,259.158526 L336.628266,268.732183 L336.497038,268.80291 L336.628266,269.04747 L336.628266,278.619424 L336.497038,278.69015 L336.628266,278.934711 L336.628266,288.508368 L336.497038,288.579095 L336.628266,288.823656 L336.628266,298.395609 L336.497038,298.466336 L336.628266,298.710896 L336.628266,303.67795 L358.032868,303.67795 L358.032868,254.610719 L349.013946,236.988713 L349.017354,236.988713 L349.017354,236.985304 L349.017354,236.984452 L348.996903,166.169211 C349.019911,154.402176 352.49148,143.338999 359.036675,134.176067 C360.752008,131.77477 362.61476,129.600992 364.573802,127.699895 C365.151545,127.482602 365.725879,127.254232 366.295953,127.015636 L366.295953,127.087215 L368.441611,126.0604 L369.292887,125.653083 L369.292887,125.628372 C373.101899,123.711936 376.625448,121.309787 379.812406,118.456863 L379.812406,118.657965 L382.388389,115.994213 L382.810192,115.558776 L382.810192,115.531507 C382.896257,115.439478 382.978062,115.344891 383.063274,115.252862 C383.289088,115.010005 383.512346,114.765444 383.732195,114.518327 C384.082419,114.124644 384.428383,113.729257 384.765826,113.325348 C384.99164,113.054371 385.208933,112.77743 385.429634,112.503045 C385.74833,112.102545 386.072138,111.705453 386.378052,111.295579 C386.848427,110.667561 387.304315,110.027613 387.744865,109.375735 C387.979201,109.028067 388.198197,108.671025 388.424011,108.317392 C388.613184,108.021704 388.809173,107.73198 388.991529,107.432883 L389.006867,107.432883 L389.441452,106.688976 L390.756286,104.435097 L390.668516,104.435097 C391.189167,103.422769 391.676584,102.395103 392.123951,101.351246 C392.216833,101.134806 392.30375,100.916661 392.393223,100.699368 C392.573022,100.263079 392.746856,99.8242329 392.913021,99.3828307 C393.018685,99.1033327 393.122645,98.8229826 393.223196,98.5409283 C393.360389,98.1566185 393.489912,97.7697525 393.616879,97.3820342 C393.719987,97.0684512 393.82565,96.7557202 393.922793,96.4395807 C394.030161,96.0876519 394.125599,95.7314624 394.225298,95.3769772 C394.361639,94.8921164 394.494571,94.4064034 394.615573,93.9147256 L394.63432,93.9147256 L394.893367,92.738789 C394.893367,92.7379369 394.893367,92.7362327 394.894219,92.7353805 L394.986249,92.3152814 C395.01096,92.1985399 395.039081,92.0826505 395.06294,91.9642047 L395.293015,90.9177916 L395.250408,90.9177916 C395.289606,90.7030554 395.330508,90.4883191 395.366298,90.2718786 C395.376523,90.2147861 395.387601,90.1559892 395.396974,90.0988967 C395.531611,89.2765932 395.645796,88.4483248 395.736973,87.6132394 C395.741234,87.5765979 395.747199,87.5408085 395.75146,87.504167 C395.837524,86.7040189 395.903138,85.8979059 395.949153,85.0866801 C395.953414,85.0168056 395.961935,84.9460789 395.965344,84.8762044 C396.011359,84.0147031 396.036922,83.148089 396.036922,82.2755099 L396.036922,80.3982721 L396.036922,77.4013381 L396.036922,66.8809664 L396.036922,63.8831803 L396.036922,53.3636607 L396.036922,50.3658746 L396.036922,48.5184612 C396.036922,47.6450301 396.011359,46.7767117 395.965344,45.9143582 Z" id="Badminton"></path>
                </g>
            </g>
        </g>
    </g>
</svg>