<?xml version="1.0" encoding="UTF-8"?>
<svg width="98px" height="304px" viewBox="0 0 98 304" version="1.1" xmlns="http://www.w3.org/2000/svg" xmlns:xlink="http://www.w3.org/1999/xlink">
    <!-- Generator: Sketch 49 (51002) - http://www.bohemiancoding.com/sketch -->
    <title>Badminton shape</title>
    <desc>Created with Sketch.</desc>
    <defs></defs>
    <g id="Page-1" stroke="none" stroke-width="1" fill="none" fill-rule="evenodd">
        <g id="Racquettes-Home" transform="translate(-173.000000, -2823.000000)" fill="#FFD7C8">
            <g id="Section-4" transform="translate(0.000000, 2575.000000)">
                <path d="M256.810192,298.365875 L256.810192,287.846355 L266.201495,287.846355 C266.212572,287.907708 266.221946,287.969061 266.233875,288.029563 C266.356582,288.675476 266.467358,289.323945 266.561945,289.972414 C266.573874,290.049958 266.581544,290.129206 266.591769,290.206749 C266.681243,290.846698 266.761343,291.486646 266.823548,292.127446 C266.843147,292.327696 266.853372,292.530502 266.869563,292.732457 C266.913873,293.253107 266.957332,293.774609 266.982896,294.296964 C267.018685,295.033202 267.039136,295.772849 267.039136,296.518461 L267.039136,298.365875 L256.810192,298.365875 Z M256.810192,311.88318 L267.039136,311.88318 L267.039136,301.362809 L256.810192,301.362809 L256.810192,311.88318 Z M256.810192,325.401338 L267.039136,325.401338 L267.039136,314.880966 L256.810192,314.880966 L256.810192,325.401338 Z M267.039136,330.27551 C267.039136,331.02027 267.018685,331.759065 266.982896,332.495303 C266.959036,332.992094 266.91643,333.489737 266.875528,333.986527 C266.857633,334.210637 266.845703,334.437303 266.823548,334.661413 C266.764751,335.274945 266.68806,335.888477 266.602847,336.501157 C266.589213,336.604264 266.578135,336.709076 266.563649,336.812183 C266.471619,337.441906 266.363399,338.070776 266.245805,338.697943 C266.232171,338.771226 266.220241,338.844509 266.206607,338.917792 L256.810192,338.917792 L256.810192,328.398272 L267.039136,328.398272 L267.039136,330.27551 Z M221.385529,401.337868 C219.717063,393.907312 216.641733,386.954801 212.25157,380.809254 C211.367913,379.571112 210.439946,378.403697 209.486415,377.282296 C209.632128,377.31979 209.781251,377.34791 209.926965,377.383699 C210.384557,377.49618 210.843854,377.604401 211.305708,377.703247 C211.63889,377.774826 211.974628,377.842144 212.310367,377.906906 C212.626506,377.967407 212.943498,378.023647 213.261341,378.078184 L213.261341,378.102895 L214.012066,378.211116 C214.143294,378.232419 214.276226,378.248609 214.408306,378.26906 L214.54635,378.288659 L216.258275,378.534924 L216.258275,378.504248 C216.261684,378.504248 216.263388,378.5051 216.265945,378.5051 C216.599979,378.541741 216.936569,378.568157 217.272308,378.59713 C217.699224,378.634623 218.125288,378.667856 218.5505,378.695124 C218.825737,378.711315 219.100122,378.728357 219.376212,378.739435 C220.093703,378.771816 220.808639,378.794823 221.518461,378.794823 C222.228284,378.794823 222.943219,378.771816 223.659859,378.739435 C223.9368,378.728357 224.212038,378.711315 224.487275,378.695124 C224.911635,378.667856 225.336847,378.634623 225.762911,378.59713 C226.101205,378.567305 226.441204,378.540889 226.777795,378.504248 L226.777795,378.534924 L228.490572,378.288659 L228.62606,378.26906 C228.758992,378.248609 228.892776,378.232419 229.026561,378.211116 L229.775581,378.102895 L229.775581,378.078184 C230.092573,378.023647 230.409564,377.967407 230.725704,377.906906 C231.062294,377.842144 231.398033,377.774826 231.732067,377.702395 C232.130863,377.618035 232.52625,377.525153 232.92249,377.429714 C232.124898,378.393471 231.344349,379.388756 230.597885,380.434317 C226.133586,386.682972 223.033545,393.765859 221.385529,401.337868 Z M213.626052,548.680164 L213.626052,548.188486 L229.035934,539.910063 L229.035934,548.680164 L213.626052,548.680164 Z M213.626052,538.299541 L229.035934,530.021971 L229.035934,536.823656 L228.903854,536.579095 L213.626052,544.785939 L213.626052,538.299541 Z M213.626052,528.412301 L229.035934,520.133878 L229.035934,526.934711 L228.903854,526.69015 L213.626052,534.897847 L213.626052,528.412301 Z M213.626052,518.523356 L229.035934,510.245785 L229.035934,517.04747 L228.903854,516.80291 L213.626052,525.009754 L213.626052,518.523356 Z M213.626052,508.636115 L227.841251,500.999345 L229.035934,503.333323 L229.035934,507.158526 L228.903854,506.913965 L213.626052,515.121661 L213.626052,508.636115 Z M213.626052,503.333323 L221.330993,488.277927 L226.475289,498.33048 L213.626052,505.233568 L213.626052,503.333323 Z M186.225878,328.398272 L186.225878,338.917792 L176.830315,338.917792 C176.816681,338.843656 176.803899,338.768669 176.790265,338.694534 C176.672671,338.069072 176.564451,337.440202 176.473274,336.811331 C176.458787,336.71078 176.448562,336.608525 176.434076,336.507122 C176.349715,335.892737 176.272171,335.276649 176.212522,334.661413 C176.191219,334.439007 176.179289,334.213193 176.161395,333.989936 C176.120493,333.491441 176.077886,332.992946 176.053174,332.494451 C176.017385,331.759065 175.996934,331.019418 175.996934,330.27551 L175.996934,328.398272 L186.225878,328.398272 Z M175.996934,325.401338 L186.225878,325.401338 L186.225878,314.880966 L175.996934,314.880966 L175.996934,325.401338 Z M175.996934,311.88318 L186.225878,311.88318 L186.225878,301.362809 L175.996934,301.362809 L175.996934,311.88318 Z M175.996934,296.518461 C175.996934,295.772849 176.017385,295.033202 176.053174,294.296964 C176.07959,293.774609 176.123049,293.253107 176.166507,292.732457 C176.18355,292.530502 176.193776,292.327696 176.213374,292.127446 C176.27558,291.486646 176.354828,290.846698 176.444301,290.206749 C176.455379,290.129206 176.463048,290.049958 176.474126,289.972414 C176.568712,289.324797 176.680341,288.678032 176.802195,288.032971 C176.814125,287.970766 176.823498,287.90856 176.835428,287.846355 L186.225878,287.846355 L186.225878,298.365875 L175.996934,298.365875 L175.996934,296.518461 Z M256.810192,274.329049 L261.244666,274.329049 C261.29835,274.424488 261.355443,274.519074 261.409127,274.614512 C261.805366,275.335413 262.188824,276.062278 262.544161,276.801073 C262.608071,276.933152 262.663459,277.068641 262.724812,277.199868 C263.034987,277.859415 263.329823,278.524075 263.606765,279.196404 C263.705612,279.435852 263.797642,279.678709 263.89308,279.920713 C264.129971,280.525724 264.355785,281.134995 264.567113,281.750232 C264.640396,281.964968 264.714531,282.178852 264.785258,282.39444 C265.040896,283.177546 265.280344,283.967469 265.492524,284.764208 C265.500193,284.792328 265.508714,284.820449 265.516384,284.849421 L256.810192,284.849421 L256.810192,274.329049 Z M243.292887,284.849421 L253.812406,284.849421 L253.812406,274.329049 L243.292887,274.329049 L243.292887,284.849421 Z M243.292887,338.917792 L253.812406,338.917792 L253.812406,328.398272 L243.292887,328.398272 L243.292887,338.917792 Z M243.292887,370.240311 L243.292887,355.432883 L253.812406,355.432883 L253.812406,362.322338 C250.71833,365.440274 247.176886,368.115956 243.292887,370.240311 Z M189.223664,362.322338 L189.223664,355.432883 L199.744036,355.432883 L199.744036,370.240311 C195.860037,368.115956 192.318593,365.440274 189.223664,362.322338 Z M189.223664,352.435097 L199.744036,352.435097 L199.744036,341.914726 L189.223664,341.914726 L189.223664,352.435097 Z M189.223664,298.365875 L199.744036,298.365875 L199.744036,287.846355 L189.223664,287.846355 L189.223664,298.365875 Z M199.744036,256.55366 L199.744036,271.331263 L189.223664,271.331263 L189.223664,264.472485 C192.318593,261.352845 195.860037,258.678015 199.744036,256.55366 Z M229.775581,338.917792 L240.295953,338.917792 L240.295953,328.398272 L229.775581,328.398272 L229.775581,338.917792 Z M229.775581,352.435097 L240.295953,352.435097 L240.295953,341.914726 L229.775581,341.914726 L229.775581,352.435097 Z M216.258275,352.435097 L226.777795,352.435097 L226.777795,341.914726 L216.258275,341.914726 L216.258275,352.435097 Z M202.74097,298.365875 L213.260489,298.365875 L213.260489,287.846355 L202.74097,287.846355 L202.74097,298.365875 Z M202.741822,284.849421 L213.261341,284.849421 L213.261341,274.329049 L202.741822,274.329049 L202.741822,284.849421 Z M216.258275,338.917792 L226.777795,338.917792 L226.777795,328.398272 L216.258275,328.398272 L216.258275,338.917792 Z M216.258275,325.401338 L226.777795,325.401338 L226.777795,314.880966 L216.258275,314.880966 L216.258275,325.401338 Z M216.258275,311.88318 L226.777795,311.88318 L226.777795,301.362809 L216.258275,301.362809 L216.258275,311.88318 Z M216.258275,298.365875 L226.777795,298.365875 L226.777795,287.846355 L216.258275,287.846355 L216.258275,298.365875 Z M216.258275,284.849421 L226.777795,284.849421 L226.777795,274.329049 L216.258275,274.329049 L216.258275,284.849421 Z M189.223664,284.849421 L199.744036,284.849421 L199.744036,274.329049 L189.223664,274.329049 L189.223664,284.849421 Z M202.74097,311.884032 L213.260489,311.884032 L213.260489,301.363661 L202.74097,301.363661 L202.74097,311.884032 Z M202.74097,325.401338 L213.260489,325.401338 L213.260489,314.880966 L202.74097,314.880966 L202.74097,325.401338 Z M202.74097,338.917792 L213.260489,338.917792 L213.260489,328.398272 L202.74097,328.398272 L202.74097,338.917792 Z M202.74097,352.435097 L213.260489,352.435097 L213.260489,341.914726 L202.74097,341.914726 L202.74097,352.435097 Z M243.292887,352.435097 L253.812406,352.435097 L253.812406,341.914726 L243.292887,341.914726 L243.292887,352.435097 Z M229.775581,325.401338 L240.295953,325.401338 L240.295953,314.880966 L229.775581,314.880966 L229.775581,325.401338 Z M229.775581,311.88318 L240.295953,311.88318 L240.295953,301.362809 L229.775581,301.362809 L229.775581,311.88318 Z M229.775581,298.365875 L240.295953,298.365875 L240.295953,287.846355 L229.775581,287.846355 L229.775581,298.365875 Z M229.775581,284.849421 L240.295953,284.849421 L240.295953,274.329049 L229.775581,274.329049 L229.775581,284.849421 Z M253.812406,264.471633 L253.812406,271.331263 L243.292887,271.331263 L243.292887,256.55366 C247.176886,258.678015 250.71833,261.352845 253.812406,264.471633 Z M259.23194,271.051765 C259.240461,271.065399 259.249835,271.077329 259.258356,271.089259 C259.31204,271.169359 259.360611,271.252015 259.413443,271.331263 L256.810192,271.331263 L256.810192,267.80601 C257.66232,268.851571 258.473546,269.932921 259.23194,271.051765 Z M230.033776,251.807308 C230.710365,251.935127 231.38099,252.081693 232.048206,252.239337 C232.243344,252.286204 232.440185,252.326254 232.63447,252.374825 C233.444844,252.578483 234.249253,252.801741 235.045992,253.048006 C235.339977,253.140036 235.626292,253.246552 235.916867,253.343694 C236.394911,253.503042 236.87125,253.663242 237.343329,253.837929 C237.78388,254.001537 238.219317,254.17878 238.65305,254.356022 C238.95726,254.479581 239.261469,254.604844 239.563123,254.734367 C239.809388,254.841735 240.051392,254.95592 240.295953,255.066697 L240.295953,271.331263 L229.775581,271.331263 L229.775581,251.761293 C229.861646,251.776631 229.948563,251.791117 230.033776,251.807308 Z M216.387799,251.293475 C217.131707,251.209114 217.873058,251.146909 218.612705,251.099189 C218.729446,251.09152 218.843632,251.07959 218.960373,251.072773 C220.668038,250.975631 222.369737,250.975631 224.077401,251.072773 C224.191587,251.07959 224.304067,251.09152 224.418253,251.098337 C225.160456,251.146909 225.903512,251.209114 226.649976,251.294327 C226.692582,251.298587 226.735189,251.304552 226.777795,251.309665 L226.777795,271.331263 L216.258275,271.331263 L216.258275,251.309665 C216.301734,251.304552 216.34434,251.298587 216.387799,251.293475 Z M203.472095,254.736071 C203.774601,254.604844 204.079663,254.478729 204.385577,254.35517 C204.81931,254.177928 205.253895,254.001537 205.694445,253.837929 C206.161411,253.664947 206.632638,253.505599 207.104717,253.348807 C207.40211,253.24996 207.694389,253.140888 207.993486,253.047154 C208.78767,252.800889 209.589522,252.579336 210.398191,252.375677 C210.596737,252.326254 210.798692,252.284499 210.998942,252.23678 C211.662749,252.080841 212.329113,251.935127 213.00059,251.807308 C213.087507,251.791117 213.174424,251.776631 213.261341,251.761293 L213.261341,271.331263 L202.74097,271.331263 L202.74097,255.066697 C202.984678,254.95592 203.226683,254.842587 203.472095,254.736071 Z M183.801574,271.056878 C184.56082,269.93633 185.372898,268.853275 186.225878,267.80601 L186.225878,271.331263 L183.623479,271.331263 C183.676311,271.252015 183.724882,271.168507 183.778566,271.088407 C183.786236,271.079033 183.793905,271.067956 183.801574,271.056878 Z M177.544398,284.764208 C177.756578,283.967469 177.996026,283.177546 178.251665,282.39444 C178.322391,282.178852 178.395674,281.964968 178.468957,281.750232 C178.680285,281.135847 178.906099,280.526576 179.14299,279.921565 C179.238429,279.678709 179.331311,279.435 179.430158,279.1947 C179.707099,278.524075 180.001935,277.859415 180.311258,277.201573 C180.373463,277.069493 180.428851,276.933152 180.491909,276.801073 C180.848098,276.062278 181.230704,275.335413 181.627795,274.614512 C181.680627,274.519074 181.738572,274.424488 181.792256,274.329049 L186.225878,274.329049 L186.225878,284.849421 L177.519687,284.849421 C177.527356,284.820449 177.535877,284.792328 177.544398,284.764208 Z M189.223664,311.884032 L199.744036,311.884032 L199.744036,301.363661 L189.223664,301.363661 L189.223664,311.884032 Z M189.223664,325.401338 L199.744036,325.401338 L199.744036,314.880966 L189.223664,314.880966 L189.223664,325.401338 Z M189.223664,338.917792 L199.744036,338.917792 L199.744036,328.398272 L189.223664,328.398272 L189.223664,338.917792 Z M180.482536,349.971595 C180.414365,349.82929 180.353864,349.681872 180.286546,349.538714 C179.983189,348.890245 179.692613,348.235811 179.421636,347.575412 C179.321937,347.335964 179.229907,347.092255 179.134469,346.850251 C178.896725,346.243536 178.670912,345.631708 178.459584,345.013915 C178.387153,344.803439 178.31387,344.592112 178.244848,344.379932 C177.984096,343.580636 177.739536,342.774523 177.523947,341.959888 C177.520539,341.945402 177.515426,341.930064 177.511165,341.914726 L186.225878,341.914726 L186.225878,352.435097 L181.775214,352.435097 C181.724938,352.345624 181.671254,352.258707 181.621831,352.169233 C181.223035,351.444925 180.840429,350.714651 180.482536,349.971595 Z M183.839068,355.789925 C183.816912,355.757544 183.793905,355.726015 183.772602,355.693635 C183.713805,355.608422 183.661825,355.518096 183.60388,355.432883 L186.225878,355.432883 L186.225878,358.987961 C185.386532,357.957739 184.588088,356.891726 183.839068,355.789925 Z M210.991273,374.554635 C210.795283,374.507768 210.596737,374.467718 210.400748,374.418294 C209.591226,374.215488 208.78767,373.991378 207.99093,373.745113 C207.697798,373.653935 207.411483,373.547419 207.121759,373.450277 C206.642864,373.290929 206.165672,373.129877 205.692741,372.95519 C205.253043,372.791582 204.820162,372.616044 204.386429,372.439653 C204.080515,372.31439 203.775453,372.189127 203.471243,372.057048 C203.225831,371.950532 202.984678,371.838051 202.74097,371.727274 L202.74097,355.432883 L213.261341,355.432883 L213.261341,375.032678 C213.174424,375.016488 213.087507,375.002854 213.001442,374.985811 C212.326557,374.858844 211.657637,374.712278 210.991273,374.554635 Z M224.418253,375.694782 C224.304067,375.702451 224.191587,375.714381 224.077401,375.720346 C222.369737,375.81834 220.668038,375.81834 218.960373,375.720346 C218.844484,375.714381 218.731151,375.701599 218.616113,375.694782 C217.874762,375.646211 217.132559,375.584005 216.387799,375.500497 C216.34434,375.495384 216.301734,375.488567 216.258275,375.483454 L216.258275,355.432883 L226.777795,355.432883 L226.777795,375.483454 C226.735189,375.488567 226.692582,375.495384 226.649976,375.499644 C225.903512,375.584005 225.159604,375.646211 224.418253,375.694782 Z M239.562271,372.058752 C239.261469,372.189127 238.958964,372.313538 238.656459,372.437097 C238.220169,372.614339 237.78388,372.791582 237.340773,372.956043 C236.874659,373.129025 236.403432,373.28752 235.931353,373.444312 C235.634813,373.544011 235.343385,373.652231 235.04514,373.745113 C234.248401,373.99223 233.445696,374.215488 232.636175,374.418294 C232.441037,374.467718 232.241639,374.507768 232.04565,374.554635 C231.378434,374.712278 230.709513,374.858844 230.033776,374.985811 C229.948563,375.002854 229.861646,375.016488 229.775581,375.032678 L229.775581,355.432883 L240.295953,355.432883 L240.295953,371.727274 C240.051392,371.838051 239.808536,371.952236 239.562271,372.058752 Z M259.194446,355.794186 C258.446278,356.895135 257.648686,357.958591 256.810192,358.987961 L256.810192,355.432883 L259.43219,355.432883 C259.375098,355.518096 259.323118,355.60757 259.265173,355.692782 C259.242166,355.726868 259.217454,355.760101 259.194446,355.794186 Z M265.512123,341.959888 C265.296535,342.774523 265.052826,343.579784 264.792075,344.37908 C264.723053,344.592112 264.64977,344.802587 264.577339,345.013915 C264.366011,345.631708 264.139345,346.244388 263.901601,346.851103 C263.807015,347.093107 263.714985,347.334259 263.616138,347.572855 C263.343457,348.237515 263.051177,348.894506 262.746116,349.546384 C262.680502,349.686985 262.621705,349.830994 262.554387,349.969891 C262.197345,350.712947 261.813036,351.444072 261.41424,352.169233 C261.365668,352.258707 261.311984,352.345624 261.261709,352.435097 L256.810192,352.435097 L256.810192,341.914726 L265.525757,341.914726 C265.521496,341.930064 265.516384,341.945402 265.512123,341.959888 Z M243.292887,325.401338 L253.812406,325.401338 L253.812406,314.880966 L243.292887,314.880966 L243.292887,325.401338 Z M243.292887,311.88318 L253.812406,311.88318 L253.812406,301.362809 L243.292887,301.362809 L243.292887,311.88318 Z M243.292887,298.365875 L253.812406,298.365875 L253.812406,287.846355 L243.292887,287.846355 L243.292887,298.365875 Z M269.965344,293.914358 C269.961083,293.834258 269.95171,293.754158 269.947449,293.673206 C269.900582,292.871354 269.83582,292.074614 269.750607,291.282987 C269.744643,291.232712 269.736121,291.180732 269.731008,291.130456 C269.638979,290.307301 269.52735,289.491814 269.39527,288.682293 C269.384192,288.614122 269.369706,288.546804 269.358629,288.477782 C269.323691,288.266454 269.283641,288.056831 269.245296,287.846355 L269.287902,287.846355 L269.061236,286.820393 C269.039081,286.708764 269.011812,286.59884 268.988805,286.488915 L268.885698,286.025358 L268.626651,284.849421 L268.608756,284.849421 C268.487754,284.359447 268.35397,283.876291 268.218481,283.393987 C268.119635,283.042058 268.025048,282.689277 267.918532,282.339052 C267.822242,282.024617 267.715726,281.715294 267.613471,281.403416 C267.485651,281.013141 267.356128,280.624571 267.218935,280.238557 C267.118384,279.957355 267.015277,279.678709 266.909613,279.400915 C266.743448,278.960365 266.569614,278.522371 266.390667,278.086934 C266.300341,277.867937 266.212572,277.64894 266.118838,277.432499 C265.842749,276.787439 265.555582,276.146638 265.25052,275.513507 C265.247963,275.509247 265.246259,275.504134 265.244555,275.499873 C265.05453,275.10619 264.853428,274.71762 264.653178,274.329049 L264.741799,274.329049 L263.423557,272.074319 L263.417593,272.064093 L262.988972,271.331263 L262.972782,271.331263 C262.798948,271.046653 262.612332,270.770563 262.432533,270.489361 C262.061005,269.906505 261.676695,269.331319 261.279603,268.763802 C260.981359,268.337738 260.68567,267.909117 260.374644,267.493279 C260.064469,267.078293 259.738104,266.67694 259.414295,266.271328 C259.199559,266.002907 258.986527,265.732783 258.766678,265.469475 C258.426679,265.061306 258.078159,264.66251 257.725378,264.267123 C257.508937,264.024266 257.289088,263.783966 257.067535,263.54537 C256.98147,263.451636 256.897962,263.355346 256.810192,263.262464 L256.810192,263.235196 L256.388389,262.799758 L253.812406,260.136858 L253.812406,260.336256 C250.625448,257.48248 247.101047,255.081183 243.292887,253.164748 L243.292887,253.14174 L242.441611,252.733571 L240.295953,251.705904 L240.295953,251.777483 C239.630441,251.498837 238.958964,251.23553 238.282374,250.986708 C238.215056,250.961997 238.147738,250.938137 238.08042,250.912573 C237.424282,250.67483 236.763882,250.45072 236.097518,250.240244 C236.019975,250.216385 235.944135,250.189969 235.86574,250.166109 C235.168699,249.950521 234.465693,249.749419 233.758427,249.565359 C233.544543,249.509971 233.32725,249.462252 233.112514,249.40942 C232.654069,249.297791 232.194772,249.189571 231.732919,249.090724 C231.396328,249.018293 231.058034,248.950975 230.718035,248.885361 C230.405304,248.82486 230.090868,248.769472 229.775581,248.714935 L229.775581,248.691076 L229.036786,248.58456 C228.893629,248.562404 228.747915,248.542806 228.603905,248.522354 L228.490572,248.505312 L228.487164,248.505312 L226.777795,248.259047 L226.777795,248.288871 C226.428422,248.250526 226.076494,248.223258 225.725417,248.193433 C225.330882,248.158496 224.936346,248.127819 224.542663,248.103107 C224.230784,248.083509 223.918906,248.065614 223.605323,248.05198 C223.033545,248.027268 222.461767,248.012782 221.889989,248.008521 C221.765578,248.007669 221.642872,248 221.518461,248 C221.394051,248 221.272196,248.007669 221.147786,248.008521 C220.576008,248.012782 220.003378,248.027268 219.430748,248.05198 C219.118017,248.065614 218.80699,248.083509 218.495963,248.103107 C218.100576,248.127819 217.705189,248.158496 217.309801,248.193433 C216.958725,248.223258 216.607648,248.251378 216.258275,248.288871 L216.258275,248.259047 L214.548907,248.505312 L214.545498,248.505312 L214.430461,248.522354 C214.287303,248.542806 214.143294,248.562404 214.000988,248.583708 L213.261341,248.691076 L213.261341,248.714935 C212.945202,248.769472 212.630767,248.82486 212.317184,248.886213 C211.978889,248.950975 211.640594,249.018293 211.304856,249.090724 C210.84215,249.189571 210.382853,249.297791 209.924408,249.40942 C209.709672,249.462252 209.492379,249.509971 209.278495,249.565359 C208.571229,249.749419 207.869076,249.950521 207.172035,250.166109 C207.092787,250.189969 207.015244,250.216385 206.936848,250.241097 C206.272188,250.45072 205.613493,250.67483 204.959059,250.912573 C204.890036,250.937285 204.821014,250.962849 204.75114,250.988413 C204.076254,251.236382 203.40563,251.498837 202.74097,251.777483 L202.74097,251.706757 L200.595312,252.733571 L199.744036,253.14174 L199.744036,253.164748 C195.935876,255.081183 192.411475,257.48248 189.223664,260.336256 L189.223664,260.136858 L186.647681,262.799758 L186.225878,263.235196 L186.225878,263.262464 C186.138109,263.355346 186.055452,263.451636 185.968535,263.546222 C185.746982,263.783966 185.527985,264.024266 185.311545,264.26627 C184.958764,264.66251 184.610243,265.061306 184.271096,265.468623 C184.049543,265.732783 183.836511,266.002907 183.621775,266.273032 C183.297966,266.67694 182.972453,267.078293 182.662279,267.493279 C182.340174,267.922751 182.034261,268.365858 181.726642,268.80726 C181.340628,269.360291 180.967396,269.920139 180.60439,270.489361 C180.424591,270.770563 180.237975,271.0458 180.064141,271.331263 L180.047098,271.331263 L179.61933,272.064093 C179.617626,272.067502 179.615069,272.07091 179.612513,272.074319 L178.295123,274.329049 L178.382892,274.329049 C178.182642,274.718472 177.98154,275.107042 177.792368,275.500725 C177.790663,275.503282 177.790663,275.504986 177.789811,275.50669 C177.483045,276.142378 177.195026,276.784882 176.917232,277.432499 C176.82435,277.64894 176.735729,277.867937 176.646255,278.086934 C176.466457,278.522371 176.293475,278.960365 176.126457,279.400915 C176.021646,279.678709 175.917686,279.957355 175.817987,280.238557 C175.680795,280.624571 175.550419,281.013141 175.4226,281.403416 C175.320344,281.715294 175.214681,282.024617 175.11839,282.339052 C175.011874,282.689277 174.917288,283.042058 174.818441,283.393987 C174.682101,283.876291 174.548316,284.359447 174.427314,284.849421 L174.40942,284.849421 L174.150373,286.025358 L174.048117,286.488915 C174.02511,286.59884 173.997842,286.708764 173.974834,286.820393 L173.748168,287.846355 L173.791627,287.846355 C173.752429,288.060239 173.711527,288.274123 173.675737,288.489712 C173.665512,288.551917 173.65273,288.614974 173.642504,288.678032 C173.509573,289.494371 173.395387,290.316674 173.303358,291.145794 C173.299097,291.190957 173.291428,291.235268 173.286315,291.280431 C173.201102,292.075466 173.135488,292.877318 173.088621,293.683432 C173.084361,293.760123 173.075839,293.836815 173.071579,293.913506 C173.025564,294.77586 173,295.644178 173,296.518461 L173,298.365875 L173,301.363661 L173,311.898519 L173,314.880966 L173,325.401338 L173,328.398272 L173,330.27551 C173,331.148089 173.025564,332.013851 173.070727,332.8745 C173.074987,332.949487 173.083509,333.023623 173.087769,333.097758 C173.134636,333.903871 173.199398,334.705723 173.284611,335.500759 C173.289724,335.544217 173.297393,335.587676 173.301653,335.630282 C173.392831,336.45855 173.506164,337.280002 173.639096,338.094636 C173.649321,338.157693 173.662103,338.220751 173.672329,338.283808 C173.708118,338.495988 173.747316,338.706464 173.785662,338.917792 L173.743056,338.917792 L173.973982,339.965057 C173.99699,340.080946 174.02511,340.195131 174.04897,340.310169 L174.143556,340.738789 L174.402603,341.914726 L174.420497,341.914726 C174.543204,342.409812 174.676988,342.898081 174.81418,343.386351 C174.913027,343.737427 175.007613,344.089356 175.113277,344.437876 C175.211272,344.756572 175.317788,345.07186 175.421748,345.387999 C175.547863,345.773161 175.676534,346.156619 175.812022,346.538372 C175.913425,346.822983 176.018237,347.105889 176.124753,347.387943 C176.290066,347.825085 176.462196,348.258818 176.639438,348.691699 C176.731468,348.9124 176.82009,349.135658 176.914676,349.355507 C177.361191,350.398511 177.847756,351.424474 178.368406,352.435097 L178.279785,352.435097 L179.59547,354.688976 L180.029203,355.432883 L180.044542,355.432883 C180.226897,355.731128 180.422887,356.020852 180.612059,356.315688 C180.837873,356.670173 181.05687,357.027215 181.292057,357.375735 C181.732607,358.027613 182.187644,358.667561 182.658018,359.295579 C182.964784,359.705453 183.287741,360.102545 183.607289,360.503045 C183.827138,360.77743 184.04443,361.054371 184.271096,361.325348 C184.608539,361.729257 184.954503,362.125496 185.304728,362.519179 C185.524577,362.765444 185.746982,363.009153 185.971944,363.252009 C186.058009,363.344039 186.139813,363.439478 186.225878,363.531507 L186.225878,363.558776 L186.647681,363.994213 L189.223664,366.657965 L189.223664,366.456863 C192.411475,369.310639 195.935024,371.711936 199.744036,373.628372 L199.744036,373.653083 L200.595312,374.0604 L202.74097,375.087215 L202.74097,375.015636 C202.984678,375.117039 203.229239,375.21759 203.4738,375.316437 C205.732791,377.395629 207.865667,379.825046 209.81278,382.551003 C216.357122,391.713935 219.829544,402.77626 219.851699,414.544999 L220.017864,484.264404 L210.628266,502.610719 L210.628266,506.843238 L210.497038,506.913965 L210.628266,507.158526 L210.628266,516.732183 L210.497038,516.80291 L210.628266,517.04747 L210.628266,526.619424 L210.497038,526.69015 L210.628266,526.934711 L210.628266,536.508368 L210.497038,536.579095 L210.628266,536.823656 L210.628266,546.395609 L210.497038,546.466336 L210.628266,546.710896 L210.628266,551.67795 L232.032868,551.67795 L232.032868,502.610719 L223.013946,484.988713 L223.017354,484.988713 L223.017354,484.985304 L223.017354,484.984452 L222.996903,414.169211 C223.019911,402.402176 226.49148,391.338999 233.036675,382.176067 C234.752008,379.77477 236.61476,377.600992 238.573802,375.699895 C239.151545,375.482602 239.725879,375.254232 240.295953,375.015636 L240.295953,375.087215 L242.441611,374.0604 L243.292887,373.653083 L243.292887,373.628372 C247.101899,371.711936 250.625448,369.309787 253.812406,366.456863 L253.812406,366.657965 L256.388389,363.994213 L256.810192,363.558776 L256.810192,363.531507 C256.896257,363.439478 256.978062,363.344891 257.063274,363.252862 C257.289088,363.010005 257.512346,362.765444 257.732195,362.518327 C258.082419,362.124644 258.428383,361.729257 258.765826,361.325348 C258.99164,361.054371 259.208933,360.77743 259.429634,360.503045 C259.74833,360.102545 260.072138,359.705453 260.378052,359.295579 C260.848427,358.667561 261.304315,358.027613 261.744865,357.375735 C261.979201,357.028067 262.198197,356.671025 262.424011,356.317392 C262.613184,356.021704 262.809173,355.73198 262.991529,355.432883 L263.006867,355.432883 L263.441452,354.688976 L264.756286,352.435097 L264.668516,352.435097 C265.189167,351.422769 265.676584,350.395103 266.123951,349.351246 C266.216833,349.134806 266.30375,348.916661 266.393223,348.699368 C266.573022,348.263079 266.746856,347.824233 266.913021,347.382831 C267.018685,347.103333 267.122645,346.822983 267.223196,346.540928 C267.360389,346.156619 267.489912,345.769752 267.616879,345.382034 C267.719987,345.068451 267.82565,344.75572 267.922793,344.439581 C268.030161,344.087652 268.125599,343.731462 268.225298,343.376977 C268.361639,342.892116 268.494571,342.406403 268.615573,341.914726 L268.63432,341.914726 L268.893367,340.738789 C268.893367,340.737937 268.893367,340.736233 268.894219,340.735381 L268.986249,340.315281 C269.01096,340.19854 269.039081,340.082651 269.06294,339.964205 L269.293015,338.917792 L269.250408,338.917792 C269.289606,338.703055 269.330508,338.488319 269.366298,338.271879 C269.376523,338.214786 269.387601,338.155989 269.396974,338.098897 C269.531611,337.276593 269.645796,336.448325 269.736973,335.613239 C269.741234,335.576598 269.747199,335.540809 269.75146,335.504167 C269.837524,334.704019 269.903138,333.897906 269.949153,333.08668 C269.953414,333.016806 269.961935,332.946079 269.965344,332.876204 C270.011359,332.014703 270.036922,331.148089 270.036922,330.27551 L270.036922,328.398272 L270.036922,325.401338 L270.036922,314.880966 L270.036922,311.88318 L270.036922,301.363661 L270.036922,298.365875 L270.036922,296.518461 C270.036922,295.64503 270.011359,294.776712 269.965344,293.914358 Z" id="Badminton-shape"></path>
            </g>
        </g>
    </g>
</svg>