<?xml version="1.0" encoding="UTF-8"?>
<svg width="825px" height="141px" viewBox="0 0 825 141" version="1.1" xmlns="http://www.w3.org/2000/svg" xmlns:xlink="http://www.w3.org/1999/xlink">
    <!-- Generator: Sketch 49 (51002) - http://www.bohemiancoding.com/sketch -->
    <title>Raquettes Logo</title>
    <desc>Created with Sketch.</desc>
    <defs></defs>
    <g id="Page-1" stroke="none" stroke-width="1" fill="none" fill-rule="evenodd">
        <g id="Racquettes-Home" transform="translate(-304.000000, -446.000000)" stroke="#000000" stroke-width="3">
            <g id="Section-1" transform="translate(1.000000, 175.000000)">
                <g id="Raquettes-Logo" transform="translate(305.000000, 273.000000)">
                    <path d="M42.8938537,7.85173625 L42.8938537,53.0374916 L46.1702744,53.0374916 C58.8300153,53.0374916 66.4258599,44.5927713 66.4258599,29.9258681 C66.4258599,15.8519491 58.9792807,7.85173625 46.0219362,7.85173625 L42.8938537,7.85173625 Z M42.8938537,87.4075125 C42.8938537,94.9632178 43.489988,96.2967403 53.1699847,97.3333097 L53.1699847,104 L0,104 L0,97.3333097 C9.6809238,96.2967403 10.2770581,94.9632178 10.2770581,87.4075125 L10.2770581,16.5924875 C10.2770581,9.03678218 9.6809238,7.70325967 0,6.66669031 L0,0 L57.9362775,0 C81.9151525,0 98.5957866,11.1108431 98.5957866,29.7773916 C98.5957866,44.2967403 88.1703903,52.4445075 77.2981251,56.2965984 L97.1068416,85.3334516 C103.063549,94.2226794 105.297893,96.8888022 112,97.3333097 L112,104 L75.2130458,104 C71.0428873,100.740893 67.1703324,95.4077253 62.7025703,87.7035434 L47.3616158,61.0367822 L42.8938537,61.0367822 L42.8938537,87.4075125 Z" id="Stroke-1"></path>
                    <path d="M157.511483,90.1401877 L157.511483,62.538317 L151.550777,64.775704 C146.782955,66.5663567 143.503917,68.9532744 143.503917,77.7570072 C143.503917,85.2168216 146.037171,90.8859834 153.189832,90.8859834 C154.828887,90.8859834 156.02177,90.5878509 157.511483,90.1401877 Z M187.611842,89.0953308 C187.611842,92.0794423 187.909599,95.2130845 191.337051,95.2130845 C193.274791,95.2130845 195.211603,94.7654213 195.956459,94.4672888 L197,98.9429917 C191.78415,103.717756 185.227931,107 176.286872,107 C167.197398,107 160.641178,102.523368 157.958582,94.6158907 C153.786274,101.031777 146.931369,106.402806 135.905084,106.402806 C123.089474,106.402806 114,99.3906549 114,86.112148 C114,72.982243 122.940131,67.6112137 133.37183,64.0299083 L157.511483,55.6747675 L157.511483,39.2626184 C157.511483,33.2943954 156.02177,29.2663556 151.103678,29.2663556 C145.888756,29.2663556 143.951016,33.8915892 143.951016,40.7551386 C143.951016,44.3355152 144.547458,48.0654224 145.441657,51.7953297 L126.964025,54.1831761 C122.493959,52.690656 119.214922,48.9607488 119.214922,43.291587 C119.214922,29.116825 133.81893,23 152.444976,23 C174.200717,23 187.611842,29.4158862 187.611842,49.5579426 L187.611842,89.0953308 Z" id="Stroke-3"></path>
                    <path d="M249.232303,86.5598112 C257.659636,86.5598112 263.869008,83.8738321 268.452182,77.309344 L272,79.5476599 C267.121405,98.7943898 254.55449,107 237.404402,107 C216.411074,107 200,92.2289729 200,67.4626118 C200,41.9485975 216.559245,23 241.692154,23 C256.772452,23 269.782959,28.6700906 269.782959,42.5457913 C269.782959,48.6626162 266.23422,52.3925235 262.833653,53.8850436 L247.606105,53.8850436 C248.049697,50.3037383 248.196948,47.4691574 248.196948,44.932709 C248.196948,35.9813031 245.831736,30.1616819 239.326942,30.1616819 C231.04778,30.1616819 226.316435,41.3523324 226.316435,56.2719613 C226.316435,75.0710282 234.595598,86.5598112 249.232303,86.5598112 Z" id="Stroke-5"></path>
                    <path d="M308,58.168545 C308,76.4977094 314.26049,90.208173 324.841533,90.208173 C326.928054,90.208173 329.163943,89.9094741 331.399832,89.1645822 L331.399832,44.6074309 C331.399832,35.5175234 328.269588,30.7485455 322.457204,30.7485455 C312.620219,30.7485455 308,42.0740563 308,58.168545 Z M331.399832,92.7415475 C326.779613,100.340744 318.880709,106.898204 307.106572,106.898204 C289.817861,106.898204 277,93.6348612 277,68.5998145 C277,39.0944887 295.183995,23 318.581972,23 C330.207667,23 338.403454,26.128917 344.813312,32.0899075 L356.735889,23.4471207 L362.846082,23.4471207 L362.101095,41.9256345 L362.101095,125.376718 C362.101095,129.846997 364.486353,130.294118 370,130.741238 L370,137 L320.370683,137 L320.370683,130.741238 C328.716765,129.996346 331.399832,129.846997 331.399832,124.630898 L331.399832,92.7415475 Z" id="Stroke-7"></path>
                    <path d="M458.813465,87.75327 C458.813465,92.8261668 459.260037,95.3626151 463.57659,95.3626151 L467,95.3626151 L467,101.927103 L433.510809,107 L427.707227,107 L428.152872,92.3785036 C423.092341,99.242053 415.205065,107 401.362261,107 C387.966955,107 378.441631,98.9429917 378.441631,81.4869144 L378.441631,46.1261679 C378.441631,41.9485975 377.399321,38.5168228 373.231933,37.174762 L371,36.4280375 L371,30.4598145 L404.339098,23 L409.995368,23 L409.102224,42.6943932 L409.102224,78.8009354 C409.102224,85.6644848 411.780729,89.5439227 418.478382,89.5439227 C422.199197,89.5439227 424.432057,89.0962595 428.152872,87.9028007 L428.152872,46.1261679 C428.152872,41.9485975 427.111489,38.5168228 422.944101,37.174762 L420.711242,36.4280375 L420.711242,30.4598145 L454.05034,23 L459.706609,23 L458.813465,42.6943932 L458.813465,87.75327 Z" id="Stroke-9"></path>
                    <path d="M499.71695,52.8401866 L520.616305,52.8401866 C520.616305,38.0691596 518.245048,29.5644881 511.130355,29.5644881 C503.719484,29.5644881 500.310226,38.8149553 499.71695,52.8401866 Z M546.555274,56.4205632 L546.555274,60.1513992 L499.569323,60.1513992 C499.569323,76.5626196 508.759098,87.0074743 521.802857,87.0074743 C531.140258,87.0074743 538.254952,83.8738321 543.88784,76.5626196 L547,78.5028029 C542.849839,95.8102783 531.140258,107 511.72363,107 C489.637724,107 472,92.8261668 472,66.7158874 C472,39.7102816 491.121374,23 513.057808,23 C535.290419,23 546.555274,36.8757007 546.555274,56.4205632 Z" id="Stroke-11"></path>
                    <path d="M589.791917,23.6896893 L606.163871,23.6896893 L606.163871,32.174037 L589.791917,32.174037 L589.791917,81.4410701 C589.791917,87.8416242 592.299449,90.6694313 597.313595,90.6694313 C600.854073,90.6694313 604.246724,89.3296512 607.639376,86.9484375 L610,90.6694313 C604.099816,100.641806 595.396449,106 583.006614,106 C568.846541,106 558.964238,98.8554324 558.964238,80.9944767 L558.964238,32.174037 L551,32.174037 L551,26.6666697 C563.536743,22.2016624 575.042376,13.4198946 583.302266,3 L589.791917,3 L589.791917,23.6896893 Z" id="Stroke-13"></path>
                    <path d="M649.792835,23.6896893 L666.165707,23.6896893 L666.165707,32.174037 L649.792835,32.174037 L649.792835,81.4410701 C649.792835,87.8416242 652.299449,90.6694313 657.315432,90.6694313 C660.855909,90.6694313 664.247642,89.3296512 667.639376,86.9484375 L670,90.6694313 C664.099816,100.641806 655.397367,106 643.007532,106 C628.847459,106 618.966074,98.8554324 618.966074,80.9944767 L618.966074,32.174037 L611,32.174037 L611,26.6666697 C623.537661,22.2016624 635.043294,13.4198946 643.303184,3 L649.792835,3 L649.792835,23.6896893 Z" id="Stroke-15"></path>
                    <path d="M700.717873,52.8401866 L721.616305,52.8401866 C721.616305,38.0691596 719.245048,29.5644881 712.130355,29.5644881 C704.719484,29.5644881 701.311148,38.8149553 700.717873,52.8401866 Z M747.556197,56.4205632 L747.556197,60.1513992 L700.569323,60.1513992 C700.569323,76.5626196 709.759098,87.0074743 722.802857,87.0074743 C732.141181,87.0074743 739.255874,83.8738321 744.886918,76.5626196 L748,78.5028029 C743.849839,95.8102783 732.141181,107 712.72363,107 C690.638646,107 673,92.8261668 673,66.7158874 C673,39.7102816 692.120451,23 714.056886,23 C736.291342,23 747.556197,36.8757007 747.556197,56.4205632 Z" id="Stroke-17"></path>
                    <path d="M757.047906,99.3906549 L756.1501,79.2485986 L763.787507,79.2485986 C766.483721,91.1850447 774.571429,100.285981 786.103987,100.285981 C792.843589,100.285981 798.235083,97.152339 798.235083,90.8859834 C798.235083,83.5756996 792.393287,81.3373838 782.808305,78.5028029 C765.434882,73.4299061 756,65.9700917 756,50.3037383 C756,32.5485997 769.479203,23 788.199799,23 C798.534352,23 808.119334,25.685979 814.559667,29.8635494 L814.559667,47.7672899 L807.520797,47.7672899 C806.02259,38.3672921 799.283921,29.7140188 788.949369,29.7140188 C782.958405,29.7140188 778.764917,32.847661 778.764917,38.2186902 C778.764917,44.1869133 783.108505,46.4243004 792.244119,49.4084119 C810.964716,55.5261657 821,61.6429906 821,78.8009354 C821,96.8542065 807.370697,107 786.402324,107 C773.373422,107 763.787507,104.015888 757.047906,99.3906549 Z" id="Stroke-19"></path>
                </g>
            </g>
        </g>
    </g>
</svg>