<?xml version="1.0" encoding="UTF-8"?>
<svg width="50px" height="50px" viewBox="0 0 50 50" version="1.1" xmlns="http://www.w3.org/2000/svg" xmlns:xlink="http://www.w3.org/1999/xlink">
    <!-- Generator: Sketch 49 (51002) - http://www.bohemiancoding.com/sketch -->
    <title>Smiley</title>
    <desc>Created with Sketch.</desc>
    <defs></defs>
    <g id="Page-1" stroke="none" stroke-width="1" fill="none" fill-rule="evenodd">
        <g id="Racquettes-Home" transform="translate(-696.000000, -25.000000)" fill="#000000">
            <g id="Header" transform="translate(-2.000000, 0.000000)">
                <path d="M734.954024,46.1035431 C734.954024,44.0478633 733.281989,42.3758283 731.226309,42.3758283 C729.171655,42.3758283 727.49962,44.0478633 727.49962,46.1035431 L724.255052,46.1035431 C724.255052,42.2599142 727.382681,39.1322857 731.226309,39.1322857 C735.070964,39.1322857 738.198593,42.2599142 738.198593,46.1035431 L734.954024,46.1035431 Z M723.144123,65.4499108 C715.987198,65.4499108 710.164824,59.6275363 710.164824,52.4706112 L713.408366,52.4706112 C713.408366,57.8385614 717.776173,62.2063681 723.144123,62.2063681 C728.512074,62.2063681 732.87988,57.8385614 732.87988,52.4706112 L736.123423,52.4706112 C736.123423,59.6275363 730.301048,65.4499108 723.144123,65.4499108 Z M714.772665,39.1322857 C718.616294,39.1322857 721.743922,42.2599142 721.743922,46.1035431 L718.499354,46.1035431 C718.499354,44.0478633 716.827319,42.3758283 714.772665,42.3758283 C712.716985,42.3758283 711.04495,44.0478633 711.04495,46.1035431 L707.801407,46.1035431 C707.801407,42.2599142 710.92801,39.1322857 714.772665,39.1322857 Z M722.999487,25 C709.192376,25 698,36.1934021 698,50.0005129 C698,63.8065979 709.192376,75 722.999487,75 C736.806598,75 747.998974,63.8065979 747.998974,50.0005129 C747.998974,36.1934021 736.806598,25 722.999487,25 Z" id="Smiley"></path>
            </g>
        </g>
    </g>
</svg>