<?xml version="1.0" encoding="UTF-8"?>
<svg width="95px" height="266px" viewBox="0 0 95 266" version="1.1" xmlns="http://www.w3.org/2000/svg" xmlns:xlink="http://www.w3.org/1999/xlink">
    <!-- Generator: Sketch 49 (51002) - http://www.bohemiancoding.com/sketch -->
    <title>Squash</title>
    <desc>Created with Sketch.</desc>
    <defs></defs>
    <g id="Page-1" stroke="none" stroke-width="1" fill="none" fill-rule="evenodd">
        <g id="Racquettes-Home" transform="translate(-829.000000, -2021.000000)" fill="#fff">
            <g id="Section-3" transform="translate(1.000000, 1775.000000)">
                <g id="Rackets" transform="translate(222.000000, 207.000000)">
                    <path d="M653.261173,182.889473 L638.048985,161.42437 C638.26713,161.526626 638.487831,161.621212 638.706828,161.719207 C638.774146,161.748179 638.83976,161.778856 638.906226,161.807828 C640.873789,162.670181 642.912079,163.353588 645.004905,163.846118 L645.004905,163.863161 L645.763299,164.014839 C646.033424,164.071932 646.303548,164.125616 646.575377,164.176744 L648.001839,164.462207 L648.001839,164.414487 C648.531011,164.492031 649.062739,164.556793 649.596171,164.611329 C649.679679,164.61985 649.762336,164.627519 649.845844,164.635189 C650.311106,164.679499 650.778072,164.714436 651.247595,164.74 C651.364336,164.745965 651.481078,164.755339 651.597819,164.760451 C652.149998,164.786015 652.704733,164.801353 653.261173,164.801353 C653.817613,164.801353 654.372348,164.786015 654.924527,164.760451 C655.041268,164.755339 655.158862,164.745965 655.274751,164.74 C655.744274,164.714436 656.21124,164.679499 656.676502,164.635189 C656.76001,164.627519 656.843519,164.61985 656.927027,164.611329 C657.461312,164.556793 657.992187,164.492031 658.521359,164.414487 L658.521359,164.462207 L659.949525,164.176744 C660.220502,164.124764 660.490627,164.071932 660.760751,164.014839 L661.518293,163.863161 L661.518293,163.846118 C663.612823,163.353588 665.651966,162.670181 667.621233,161.806124 C667.683439,161.778856 667.746496,161.749883 667.809553,161.722615 C668.031107,161.623768 668.253512,161.52833 668.473361,161.425223 L653.261173,182.889473 Z M645.562197,301.100923 L660.966114,292.825909 L660.966114,301.100923 L645.562197,301.100923 Z M660.966114,269.646324 L645.556232,277.924747 L645.556232,271.439202 L660.966114,263.160778 L660.966114,269.646324 Z M660.966114,279.535269 L645.556232,287.813692 L645.556232,281.327294 L660.966114,273.049723 L660.966114,279.535269 Z M660.966114,289.423362 L645.556232,297.700933 L645.556232,291.215387 L660.966114,282.936964 L660.966114,289.423362 Z M660.966114,255.754082 L660.966114,259.759084 L645.556232,268.036655 L645.556232,261.551109 L659.970828,253.808674 L660.966114,255.754082 Z M653.261173,240.698686 L658.604867,251.13981 L645.556232,258.148562 L645.556232,255.754082 L653.261173,240.698686 Z M620.967228,131.917736 L631.486747,131.917736 L631.486747,142.437255 L622.757549,142.437255 C622.733689,142.390388 622.706421,142.344374 622.682562,142.296654 C622.681709,142.294098 622.680005,142.291542 622.678301,142.288985 C622.673188,142.277908 622.667223,142.264273 622.660406,142.253196 C622.465269,141.858661 622.272688,141.455604 622.081811,141.049991 C622.011085,140.900869 621.94121,140.751746 621.870484,140.599215 C621.736699,140.312048 621.605472,140.019768 621.474244,139.729193 C621.309783,139.360221 621.144471,138.985285 620.976601,138.595863 C620.973193,138.588194 620.969784,138.580524 620.967228,138.573707 L620.967228,131.917736 Z M617.969442,118.40043 L617.969442,128.91995 L617.366135,128.91995 C616.578769,126.498202 615.816967,123.933297 615.087545,121.254207 C615.072207,121.196262 615.056016,121.138317 615.039826,121.080373 C614.807195,120.218871 614.57712,119.346292 614.350454,118.461783 C614.346194,118.441332 614.340229,118.420881 614.335116,118.40043 L617.969442,118.40043 Z M617.969442,59.4033516 L617.969442,61.3342736 L616.582178,61.3342736 C617.026136,60.6789872 617.487137,60.0364827 617.966033,59.4076123 C617.966885,59.405908 617.96859,59.4042038 617.969442,59.4033516 Z M688.552904,88.3680328 L688.552904,77.8485132 L696.709473,77.8485132 C697.198594,80.4074535 697.466163,83.0030352 697.51729,85.6071382 C697.518994,85.6897946 697.519847,85.7707468 697.521551,85.8525511 C697.531776,86.5939024 697.520699,87.3361058 697.495987,88.0783093 C697.492578,88.1754519 697.48917,88.2717423 697.484909,88.3680328 L688.552904,88.3680328 Z M675.036451,128.91995 L685.55597,128.91995 L685.55597,118.40043 L675.036451,118.40043 L675.036451,128.91995 Z M661.518293,142.438108 L672.038664,142.438108 L672.038664,131.917736 L661.518293,131.917736 L661.518293,142.438108 Z M648.001839,142.438108 L658.521359,142.438108 L658.521359,131.917736 L648.001839,131.917736 L648.001839,142.438108 Z M634.484534,142.438108 L645.004905,142.438108 L645.004905,131.917736 L634.484534,131.917736 L634.484534,142.438108 Z M620.967228,128.91995 L631.4876,128.91995 L631.4876,118.40043 L620.967228,118.40043 L620.967228,128.91995 Z M617.969442,74.8515792 L610.490315,74.8515792 C611.45748,71.1431184 612.878829,67.6153087 614.728799,64.3312076 L617.969442,64.3312076 L617.969442,74.8515792 Z M620.966376,74.8515792 L631.486747,74.8515792 L631.486747,64.3312076 L620.966376,64.3312076 L620.966376,74.8515792 Z M634.484534,74.8515792 L645.004905,74.8515792 L645.004905,64.3312076 L634.484534,64.3312076 L634.484534,74.8515792 Z M645.004905,61.3342736 L634.484534,61.3342736 L634.484534,46.1476492 C637.837657,44.5856987 641.365467,43.4532207 645.004905,42.7715183 L645.004905,61.3342736 Z M648.001839,74.8515792 L658.521359,74.8515792 L658.521359,64.3312076 L648.001839,64.3312076 L648.001839,74.8515792 Z M661.518293,74.8515792 L672.038664,74.8515792 L672.038664,64.3312076 L661.518293,64.3312076 L661.518293,74.8515792 Z M672.038664,61.3342736 L661.518293,61.3342736 L661.518293,42.7715183 C665.157731,43.4532207 668.685541,44.5856987 672.038664,46.1476492 L672.038664,61.3342736 Z M661.518293,115.403496 L672.038664,115.403496 L672.038664,104.883125 L661.518293,104.883125 L661.518293,115.403496 Z M648.001839,128.91995 L658.521359,128.91995 L658.521359,118.40043 L648.001839,118.40043 L648.001839,128.91995 Z M634.484534,128.91995 L645.004905,128.91995 L645.004905,118.40043 L634.484534,118.40043 L634.484534,128.91995 Z M634.484534,88.3680328 L645.004905,88.3680328 L645.004905,77.8485132 L634.484534,77.8485132 L634.484534,88.3680328 Z M648.001839,88.3680328 L658.521359,88.3680328 L658.521359,77.8485132 L648.001839,77.8485132 L648.001839,88.3680328 Z M648.001839,101.886191 L658.521359,101.886191 L658.521359,91.3658189 L648.001839,91.3658189 L648.001839,101.886191 Z M634.484534,101.886191 L645.004905,101.886191 L645.004905,91.3658189 L634.484534,91.3658189 L634.484534,101.886191 Z M634.484534,115.403496 L645.004905,115.403496 L645.004905,104.883125 L634.484534,104.883125 L634.484534,115.403496 Z M648.001839,115.403496 L658.521359,115.403496 L658.521359,104.883125 L648.001839,104.883125 L648.001839,115.403496 Z M661.518293,101.885338 L672.038664,101.885338 L672.038664,91.3649668 L661.518293,91.3649668 L661.518293,101.885338 Z M661.518293,88.3680328 L672.038664,88.3680328 L672.038664,77.8485132 L661.518293,77.8485132 L661.518293,88.3680328 Z M620.967228,88.3680328 L631.4876,88.3680328 L631.4876,77.8485132 L620.967228,77.8485132 L620.967228,88.3680328 Z M620.967228,101.886191 L631.4876,101.886191 L631.4876,91.3658189 L620.967228,91.3658189 L620.967228,101.886191 Z M620.967228,115.403496 L631.4876,115.403496 L631.4876,104.883125 L620.967228,104.883125 L620.967228,115.403496 Z M661.518293,128.91995 L672.038664,128.91995 L672.038664,118.40043 L661.518293,118.40043 L661.518293,128.91995 Z M675.035598,115.403496 L685.555118,115.403496 L685.555118,104.883125 L675.035598,104.883125 L675.035598,115.403496 Z M675.035598,101.885338 L685.555118,101.885338 L685.555118,91.3649668 L675.035598,91.3649668 L675.035598,101.885338 Z M675.035598,88.3680328 L685.555118,88.3680328 L685.555118,77.8485132 L675.035598,77.8485132 L675.035598,88.3680328 Z M675.035598,74.8515792 L685.555118,74.8515792 L685.555118,64.3312076 L675.035598,64.3312076 L675.035598,74.8515792 Z M688.552904,61.3342736 L688.552904,59.4024995 C689.032652,60.0330742 689.495358,60.6772829 689.940168,61.3342736 L688.552904,61.3342736 Z M691.794399,64.3312076 C693.644369,67.6153087 695.065718,71.1431184 696.032883,74.8515792 L688.552904,74.8515792 L688.552904,64.3312076 L691.794399,64.3312076 Z M609.005056,85.6028776 C609.057036,82.9996267 609.324604,80.4057492 609.813725,77.8485132 L617.969442,77.8485132 L617.969442,88.3680328 L609.038289,88.3680328 C609.034028,88.2742987 609.03062,88.1797125 609.027211,88.0859784 C609.002499,87.3429229 608.991422,86.5990152 609.001647,85.8568117 C609.002499,85.7715989 609.004204,85.6872382 609.005056,85.6028776 Z M610.061694,97.4474561 C610.01568,97.147507 609.968812,96.8467059 609.925354,96.5561302 C609.904051,96.4112685 609.8836,96.2706674 609.862297,96.1266578 C609.822246,95.8514204 609.782196,95.575331 609.743851,95.3103192 C609.7234,95.1620489 609.703801,95.0180393 609.68335,94.8714733 C609.64756,94.6175392 609.611771,94.3619008 609.57939,94.1181922 C609.558939,93.9648092 609.540192,93.817391 609.519741,93.6657122 C609.490769,93.4390462 609.460092,93.2098238 609.432824,92.9925312 C609.397035,92.7113289 609.363802,92.4377959 609.331421,92.1651149 C609.3229,92.0909798 609.312674,92.0117319 609.304153,91.939301 C609.281997,91.7475722 609.272624,91.5566956 609.252173,91.3658189 L617.969442,91.3658189 L617.969442,101.885338 L610.795377,101.885338 C610.546555,100.473362 610.322446,99.1235918 610.1239,97.8547732 C610.102597,97.7184328 610.082998,97.5846487 610.061694,97.4474561 Z M612.400786,110.131381 C612.037779,108.433942 611.692667,106.722017 611.36545,105.003275 C611.357781,104.963225 611.350964,104.923175 611.343295,104.883125 L617.969442,104.883125 L617.969442,115.403496 L613.593765,115.403496 C613.189856,113.716283 612.80299,112.007766 612.434019,110.284764 C612.422941,110.233636 612.411863,110.182508 612.400786,110.131381 Z M658.521359,161.382616 C655.043825,161.942464 651.481078,161.943316 648.001839,161.382616 L648.001839,145.435042 L658.521359,145.435042 L658.521359,161.382616 Z M684.6868,140.52508 C684.403893,141.13776 684.123543,141.726581 683.845749,142.288133 L683.838932,142.300063 C683.815925,142.346078 683.788657,142.391241 683.765649,142.437255 L675.036451,142.437255 L675.036451,131.917736 L685.555118,131.917736 L685.555118,138.573707 C685.277324,139.221325 684.997826,139.846786 684.720033,140.451797 C684.708955,140.476509 684.697877,140.501221 684.6868,140.52508 Z M691.469738,121.12724 C691.464625,121.147691 691.45866,121.168994 691.452696,121.190297 C690.719013,123.892395 689.951246,126.477751 689.156211,128.91995 L688.552904,128.91995 L688.552904,118.40043 L692.18723,118.40043 C692.183821,118.413212 692.181265,118.425994 692.177856,118.438776 C691.945226,119.347144 691.709186,120.242731 691.469738,121.12724 Z M694.130082,110.093887 C694.112187,110.179952 694.092588,110.266869 694.074693,110.352934 C693.709983,112.04526 693.330786,113.723952 692.934546,115.378785 C692.932842,115.387306 692.931138,115.394975 692.928581,115.403496 L688.552904,115.403496 L688.552904,104.883125 L695.179903,104.883125 C695.17053,104.935104 695.161156,104.984528 695.150931,105.035655 C694.828827,106.732242 694.487975,108.420308 694.130082,110.093887 Z M697.219045,91.9384489 C697.178143,92.2878213 697.133833,92.6474193 697.087818,93.0129822 C697.073332,93.131428 697.056289,93.257543 697.040099,93.3785451 C697.006866,93.6341835 696.974485,93.8898219 696.938695,94.1522773 C696.919096,94.2996954 696.896941,94.4556348 696.87649,94.6056094 C696.843257,94.8510222 696.809172,95.0947308 696.773382,95.3452564 C696.749523,95.5173863 696.722255,95.6980374 696.697543,95.8744279 C696.662606,96.1121716 696.628521,96.3473589 696.592731,96.5902154 C696.561203,96.7947261 696.528822,97.0069059 696.496441,97.2165294 C696.463208,97.4355263 696.430827,97.653671 696.39589,97.8743722 C696.198196,99.1380779 695.974939,100.481032 695.727821,101.885338 L688.552904,101.885338 L688.552904,91.3658189 L697.271025,91.3658189 C697.251426,91.5558434 697.241201,91.745868 697.219045,91.9367446 C697.219045,91.9367446 697.219045,91.9375968 697.219045,91.9384489 Z M682.002597,52.5164535 C682.287207,52.7567536 682.565853,53.0030186 682.843647,53.2501357 C683.13337,53.5091826 683.420538,53.771638 683.704296,54.0383541 C683.885799,54.2087796 684.069859,54.3783531 684.249658,54.5521872 C684.692765,54.9816597 685.12735,55.4239141 685.555118,55.8755419 L685.555118,61.3342736 L675.036451,61.3342736 L675.036451,47.6840359 C677.377246,48.996313 679.580849,50.5131007 681.638738,52.2156524 C681.75974,52.3170556 681.882447,52.4150503 682.002597,52.5164535 Z M650.655366,42.077034 C652.396263,41.9722223 654.125231,41.9722223 655.865276,42.0761819 C655.889988,42.0778862 655.915552,42.0812947 655.941115,42.0821468 C656.796652,42.1349787 657.656449,42.2108181 658.521359,42.3139256 L658.521359,61.3342736 L648.001839,61.3342736 L648.001839,42.3139256 C648.872714,42.2108181 649.736772,42.1332745 650.598273,42.0812947 C650.61702,42.0795904 650.636619,42.0778862 650.655366,42.077034 Z M622.813789,54.0434668 C623.100104,53.7741944 623.39068,53.5083305 623.68296,53.2467272 C623.959049,53.0021665 624.235139,52.7576058 624.517193,52.5198621 C624.640752,52.4150503 624.766866,52.3136471 624.891277,52.2105396 C626.94661,50.5096922 629.148508,48.9946087 631.486747,47.6840359 L631.486747,61.3342736 L620.967228,61.3342736 L620.967228,55.876394 C621.395848,55.4247662 621.831286,54.9816597 622.275244,54.550483 C622.452487,54.3783531 622.63399,54.2121882 622.813789,54.0434668 Z M629.73392,151.935074 C629.604397,151.808107 629.474873,151.681992 629.347906,151.55332 C627.502197,149.682047 625.856738,147.628419 624.468622,145.435042 L631.486747,145.435042 L631.486747,153.550708 C631.379379,153.457826 631.272863,153.36324 631.166347,153.267802 C630.677226,152.834921 630.19833,152.392666 629.73392,151.935074 Z M642.198848,159.893097 C641.768523,159.739713 641.342459,159.576105 640.918952,159.403975 C640.893388,159.394602 640.867824,159.384376 640.841408,159.373298 C640.405971,159.195204 639.973942,159.008588 639.546174,158.810894 C639.541061,158.80919 639.5368,158.806633 639.531687,158.804929 C638.657404,158.401873 637.801016,157.958766 636.962522,157.477314 C636.942071,157.464532 636.92162,157.45175 636.901168,157.43982 C636.519415,157.219119 636.14107,156.989897 635.766986,156.753857 C635.682626,156.700173 635.599117,156.643933 635.514756,156.589396 C635.204582,156.388294 634.896111,156.184636 634.59105,155.972456 C634.55526,155.947744 634.520323,155.92218 634.484534,155.896616 L634.484534,145.435042 L645.004905,145.435042 L645.004905,160.754598 C644.070973,160.513446 643.153231,160.231391 642.25168,159.910991 C642.233785,159.905026 642.216743,159.899914 642.198848,159.893097 Z M670.976913,156.6107 C670.906186,156.655862 670.836312,156.703582 670.765585,156.747892 C670.377015,156.994157 669.985888,157.231901 669.589649,157.460271 C669.581127,157.464532 669.57431,157.469645 669.565789,157.473905 C668.726443,157.957062 667.86835,158.40102 666.993215,158.804077 C666.985546,158.808338 666.977877,158.810894 666.969355,158.815155 C666.5467,159.010292 666.118932,159.195204 665.687755,159.371594 C665.655374,159.385228 665.622141,159.39801 665.588908,159.410792 C665.17307,159.579513 664.753823,159.739713 664.331167,159.891392 C664.30816,159.899914 664.285152,159.906731 664.262145,159.915252 C663.36315,160.233948 662.448817,160.514298 661.518293,160.754598 L661.518293,145.435042 L672.038664,145.435042 L672.038664,155.897469 C672.007988,155.919624 671.978163,155.940927 671.947487,155.96223 C671.627087,156.185488 671.303278,156.400224 670.976913,156.6107 Z M676.834441,151.890763 C676.339354,152.379884 675.827225,152.853668 675.304019,153.315521 C675.214545,153.394769 675.126776,153.473165 675.036451,153.550708 L675.036451,145.435042 L682.053724,145.435042 C680.660495,147.63694 679.008219,149.69909 677.149728,151.578884 C677.045768,151.683696 676.940104,151.786803 676.834441,151.890763 Z M700.517633,88.3680328 L700.489512,88.3680328 C700.495477,88.1967551 700.498886,88.0246252 700.503147,87.8533475 C700.599437,84.4627304 700.348059,81.1130154 699.76776,77.8485132 L699.793324,77.8485132 L699.651019,77.1957832 C699.508713,76.4518755 699.345957,75.7139327 699.168714,74.9785463 L699.140594,74.8515792 L699.138038,74.8515792 C698.244155,71.1865769 696.934435,67.6545066 695.213988,64.3312076 L695.283011,64.3312076 L694.292838,62.6508112 C694.119004,62.3466016 693.939205,62.0458004 693.758554,61.7449992 L693.516549,61.3342736 L693.502915,61.3342736 C692.061115,58.9951823 690.408839,56.7813539 688.552904,54.7192043 L688.552904,54.7013096 L688.085086,54.1917371 C688.033106,54.1303839 687.980274,54.0698828 687.925738,54.0119381 C687.87035,53.9522891 687.812405,53.8986051 687.757869,53.8406604 L685.555118,51.4572585 L685.555118,51.6728469 C685.213415,51.3558553 684.870007,51.0405679 684.51893,50.7338019 C684.397928,50.628138 684.27437,50.5258826 684.151663,50.4210709 C683.654873,49.9967112 683.151265,49.5817249 682.638284,49.1778162 C682.550515,49.109646 682.462746,49.0423279 682.374977,48.9741577 C681.802347,48.530199 681.219491,48.0990222 680.627262,47.6823317 C680.594029,47.6584721 680.559944,47.6346125 680.526711,47.6107529 C678.778997,46.3879493 676.946921,45.280183 675.036451,44.294271 L675.036451,44.2704114 L674.198809,43.8596857 L672.038664,42.7979343 L672.038664,42.8720694 C669.130352,41.6194413 666.107002,40.6659101 663.003552,40.019145 C662.954128,40.0089195 662.904705,39.998694 662.855282,39.9884684 C662.411323,39.8972907 661.96566,39.8120779 661.518293,39.7336822 L661.518293,39.7081183 L660.238397,39.519798 L658.521359,39.266716 L658.521359,39.2973927 C658.462562,39.2905756 658.404617,39.2871671 658.34582,39.2803501 C658.097851,39.253082 657.848178,39.2343352 657.599356,39.2113277 C657.127277,39.1678692 656.656051,39.1295234 656.185676,39.1005511 C655.906178,39.0826564 655.625828,39.066466 655.345478,39.0536841 C654.771144,39.0281202 654.196809,39.0127819 653.622475,39.0085213 C653.502325,39.0076692 653.382175,39 653.261173,39 C653.139319,39 653.019169,39.0076692 652.897314,39.0085213 C652.324684,39.0127819 651.752054,39.0281202 651.178572,39.0536841 C650.896518,39.066466 650.616168,39.0826564 650.334966,39.1005511 C649.867147,39.1295234 649.397625,39.1670171 648.928954,39.2104756 C648.677577,39.2334831 648.425347,39.253082 648.174821,39.2803501 C648.116877,39.2871671 648.059784,39.2905756 648.001839,39.2973927 L648.001839,39.266716 L646.284801,39.519798 L645.004905,39.7081183 L645.004905,39.7336822 C644.559242,39.8112258 644.116136,39.8964386 643.673029,39.9876163 C643.620197,39.998694 643.567365,40.0089195 643.514533,40.0208493 C640.412788,40.6667623 637.391142,41.6202934 634.484534,42.8720694 L634.484534,42.7979343 L632.324389,43.8596857 L631.486747,44.2704114 L631.486747,44.294271 C629.577129,45.280183 627.745906,46.3862451 625.999043,47.6090487 C625.964106,47.6337604 625.928317,47.6601764 625.892527,47.6848881 C625.302003,48.0998744 624.721704,48.5293469 624.150778,48.9724534 C624.061305,49.0414758 623.971831,49.109646 623.88321,49.1795205 C623.371933,49.582577 622.868325,49.9958591 622.373239,50.4202188 C622.250533,50.5250305 622.12527,50.628138 622.003416,50.734654 C621.653191,51.0405679 621.308931,51.3558553 620.967228,51.673699 L620.967228,51.4572585 L618.751695,53.8542944 C618.70142,53.9079785 618.647736,53.9574019 618.59746,54.0119381 C618.544628,54.0681785 618.493501,54.1269754 618.443225,54.1849201 L617.969442,54.697049 L617.969442,54.7200564 C616.113507,56.7822061 614.461231,58.9951823 613.020283,61.3342736 L613.006649,61.3342736 L612.767201,61.7398865 C612.584845,62.0440961 612.403342,62.3483058 612.227804,62.655924 L611.240187,64.3312076 L611.30921,64.3312076 C609.587911,67.6545066 608.279043,71.1865769 607.384308,74.8515792 L607.383456,74.8515792 L607.374083,74.8958899 C607.188319,75.6611008 607.017893,76.4305723 606.869623,77.207713 L606.729874,77.8485132 L606.755438,77.8485132 C606.175139,81.1130154 605.923761,84.460174 606.020052,87.849939 C606.024312,88.022921 606.027721,88.1950508 606.033686,88.3680328 L606.005565,88.3680328 L606.077144,89.3888821 C606.089074,89.5916885 606.105264,89.7936428 606.119751,89.9964493 L606.215189,91.3658189 L606.243309,91.3658189 C606.273986,91.672585 606.291028,91.979351 606.326818,92.2878213 C606.370276,92.6567927 606.417995,93.0453631 606.468271,93.4467154 C606.48787,93.5983941 606.508321,93.7534814 606.528772,93.9068644 C606.561153,94.1556858 606.593534,94.4053593 606.628471,94.6652583 C606.655739,94.8620999 606.683859,95.0640542 606.711979,95.2651564 C606.741804,95.4807448 606.772481,95.6980374 606.804009,95.9195907 C606.838947,96.1675599 606.875588,96.4172334 606.913082,96.6703154 C606.938646,96.8390367 606.963357,97.0086102 606.988921,97.18074 C607.035788,97.4926189 607.084359,97.8062019 607.133783,98.1240457 C607.149121,98.2271532 607.166164,98.3319649 607.182354,98.4359245 C607.358745,99.5632898 607.548769,100.717071 607.751576,101.885338 L607.743906,101.885338 L608.064307,103.652652 L608.288416,104.883125 L608.296085,104.883125 C608.377037,105.314301 608.459694,105.748887 608.544907,106.188585 C608.683804,106.907781 608.826109,107.62442 608.970971,108.340208 C609.042549,108.692137 609.11498,109.044065 609.188263,109.400255 C609.366358,110.258348 609.549566,111.110476 609.736182,111.960899 C609.794126,112.224207 609.852071,112.488367 609.910868,112.753378 C610.109414,113.642148 610.31222,114.5241 610.519287,115.403496 L610.503949,115.403496 L610.958985,117.258579 L611.239335,118.40043 L611.250413,118.40043 C611.382493,118.925341 611.516277,119.451104 611.652617,119.977719 C611.785549,120.486439 611.917629,120.991751 612.052265,121.492803 C612.24229,122.201773 612.439131,122.911596 612.638529,123.620566 C612.753567,124.032144 612.869456,124.441165 612.98705,124.845926 C613.213716,125.630736 613.446347,126.413841 613.684942,127.193539 C613.782937,127.515643 613.881784,127.835191 613.980631,128.153035 C614.060731,128.408673 614.140831,128.664311 614.222635,128.91995 L614.203036,128.91995 L614.858323,130.8824 C614.859175,130.885809 614.860027,130.89007 614.861731,130.893478 L615.203434,131.917736 L615.210252,131.917736 C615.302281,132.184452 615.395163,132.449464 615.488045,132.714476 C615.574962,132.963297 615.661879,133.212118 615.749649,133.457531 C615.954159,134.031013 616.162078,134.599383 616.372554,135.163491 C616.401526,135.239331 616.428794,135.317726 616.457767,135.392714 C616.94348,136.686244 617.44794,137.952506 617.969442,139.186387 L617.969442,139.188944 L618.090444,139.470998 L618.110043,139.516161 L619.468335,142.701415 L619.99495,143.936149 L620.967228,145.43845 C621.170034,145.797196 621.389031,146.148273 621.603768,146.500202 C621.617402,146.523209 621.631888,146.546216 621.645522,146.568372 C622.010233,147.161453 622.389429,147.746013 622.786521,148.321199 C622.810381,148.356136 622.835945,148.390221 622.859804,148.425159 C623.249227,148.985007 623.651431,149.535481 624.07153,150.076583 C624.113284,150.131119 624.157595,150.183951 624.200201,150.238487 C624.605814,150.754876 625.021653,151.264449 625.453682,151.762092 C625.529521,151.849009 625.608769,151.933369 625.68546,152.019434 C626.091925,152.478731 626.504355,152.93462 626.932976,153.376874 C627.06676,153.515771 627.208213,153.648703 627.344554,153.785043 C627.727159,154.168501 628.109764,154.551106 628.50856,154.920078 C628.754825,155.147596 629.012168,155.364036 629.264398,155.586442 C629.572016,155.855714 629.872817,156.131804 630.188104,156.391703 C630.611612,156.742779 631.049606,157.076814 631.486747,157.409996 L631.486747,157.429595 L631.608602,157.519068 L651.76228,185.958838 L651.76228,237.04817 L642.558446,255.031478 L642.558446,304.097857 L663.9639,304.097857 L663.9639,255.031478 L654.760066,237.04817 L654.760066,185.958838 L674.914596,157.519068 L675.036451,157.429595 L675.036451,157.409996 C675.471036,157.078518 675.905621,156.74704 676.326572,156.399372 C676.664015,156.120726 676.986119,155.826742 677.313337,155.537871 C677.544263,155.33336 677.781155,155.135666 678.007821,154.926895 C678.415138,154.549402 678.806265,154.159128 679.196539,153.767149 C679.325211,153.637625 679.458995,153.512362 679.585962,153.381135 C680.018843,152.935472 680.435533,152.475323 680.846259,152.010913 C680.91869,151.928257 680.993677,151.849009 681.065256,151.766352 C681.499841,151.267005 681.916532,150.755728 682.322997,150.237635 C682.365603,150.183951 682.409062,150.131971 682.449964,150.077435 C682.870063,149.537186 683.272267,148.986711 683.662542,148.426863 C683.687254,148.391926 683.711965,148.356988 683.736677,148.321199 C684.132916,147.747717 684.511261,147.164861 684.874268,146.573485 C684.889606,146.547921 684.905797,146.522357 684.921135,146.497645 C685.135019,146.146568 685.353164,145.798048 685.555118,145.440154 L686.525692,143.936149 L687.054863,142.697154 L688.394408,139.557915 C688.40719,139.528091 688.419972,139.499118 688.432754,139.469294 L688.53927,139.218768 C689.064181,137.978922 689.571197,136.705843 690.061171,135.404643 C690.093551,135.318579 690.125932,135.228253 690.158313,135.142188 C690.361972,134.595974 690.563074,134.047204 690.759916,133.49332 C690.859615,133.217231 690.956757,132.937733 691.054752,132.658235 C691.140817,132.411118 691.227734,132.165705 691.312094,131.917736 L691.319764,131.917736 L691.661467,130.893478 L692.321014,128.91995 L692.299711,128.91995 C692.377254,128.676241 692.453946,128.433385 692.529785,128.188824 C692.636301,127.848825 692.741965,127.507974 692.846777,127.163714 C693.08026,126.396799 693.309482,125.62818 693.531888,124.857004 C693.651186,124.445426 693.769631,124.028735 693.887225,123.611193 C694.082362,122.914152 694.274943,122.218816 694.462411,121.522627 C694.601308,121.006238 694.737649,120.483883 694.873989,119.95812 C695.009478,119.438322 695.141557,118.919376 695.271933,118.40043 L695.282159,118.40043 L695.563361,117.258579 C695.564213,117.25517 695.565065,117.25091 695.565917,117.246649 L696.018397,115.403496 L696.003059,115.403496 C696.226316,114.458486 696.443609,113.510068 696.656641,112.55398 C696.671127,112.488367 696.684761,112.423605 696.700099,112.357991 C696.935287,111.294535 697.163657,110.226819 697.386062,109.152286 C697.406514,109.054291 697.426113,108.956296 697.446564,108.858301 C697.642553,107.90051 697.83343,106.941866 698.018341,105.978109 C698.089068,105.609138 698.15809,105.246131 698.226261,104.883125 L698.235634,104.883125 L698.457187,103.661173 C698.458039,103.658617 698.458892,103.65606 698.458892,103.652652 L698.779292,101.885338 L698.771623,101.885338 C698.974429,100.714515 699.164454,99.558177 699.341696,98.4282554 C699.357887,98.3251479 699.374077,98.2228925 699.389415,98.1206372 C699.436282,97.8181317 699.482297,97.5181827 699.52746,97.22079 C699.558137,97.0162793 699.588813,96.8126208 699.617786,96.6123707 C699.649314,96.3976344 699.680843,96.1846025 699.710668,95.9732747 C699.749865,95.702298 699.787359,95.4372862 699.824001,95.1748308 C699.844452,95.0214478 699.866607,94.8663605 699.887058,94.7146817 C699.931369,94.3917253 699.972271,94.0781422 700.012321,93.7713761 C700.024251,93.6759378 700.037885,93.5770909 700.049814,93.4825047 C700.102646,93.0692227 700.15207,92.6678704 700.19638,92.2878213 C700.233022,91.979351 700.249212,91.672585 700.279889,91.3658189 L700.308009,91.3658189 L700.4043,89.9896323 C700.417934,89.7910865 700.434124,89.5933928 700.446054,89.3939948 L700.517633,88.3680328 Z" id="Squash"></path>
                </g>
            </g>
        </g>
    </g>
</svg>