<?xml version="1.0" encoding="UTF-8"?>
<svg width="87px" height="161px" viewBox="0 0 87 161" version="1.1" xmlns="http://www.w3.org/2000/svg" xmlns:xlink="http://www.w3.org/1999/xlink">
    <!-- Generator: Sketch 49 (51002) - http://www.bohemiancoding.com/sketch -->
    <title>Table Tennis</title>
    <desc>Created with Sketch.</desc>
    <defs>
        <polygon id="path-1" points="0 0.605751852 86.5522059 0.605751852 86.5522059 160.148148 0 160.148148"></polygon>
    </defs>
    <g id="Page-1" stroke="none" stroke-width="1" fill="none" fill-rule="evenodd">
        <g id="Racquettes-Home" transform="translate(-223.000000, -2125.000000)">
            <g id="Section-3" transform="translate(1.000000, 1775.000000)">
                <g id="Rackets" transform="translate(222.000000, 207.000000)">
                    <g id="Table-Tennis" transform="translate(0.000000, 143.000000)">
                        <g id="Group-3" transform="translate(0.000000, 0.247037)">
                            <mask id="mask-2" fill="white">
                                <use xlink:href="#path-1"></use>
                            </mask>
                            <g id="Clip-2"></g>
                            <path d="M83.5521559,58.5597889 C83.5521559,65.8942333 81.5665088,72.7703815 78.1189206,78.6975667 C77.6566265,77.9283444 76.8215971,77.4095667 75.8586265,77.4095667 C74.3983912,77.4095667 73.2136559,78.591937 73.2136559,80.0511593 C73.2136559,81.3885667 74.2133029,82.4823444 75.5046559,82.6561222 C73.2290088,85.6844556 70.5354206,88.3797148 67.5117441,90.6626778 C67.1142735,89.7051963 66.1717735,89.0313815 65.0697735,89.0313815 C63.6086853,89.0313815 62.4248029,90.2137519 62.4248029,91.6721222 C62.4248029,92.3876778 62.7113912,93.0350852 63.1745382,93.5104185 C57.3003324,96.8590481 50.5109206,98.7842333 43.2762735,98.7842333 C36.1482441,98.7842333 29.4518029,96.9169741 23.6373029,93.6594926 C24.1959794,93.1756407 24.5567735,92.4694556 24.5567735,91.6721222 C24.5567735,90.2137519 23.3720382,89.0313815 21.9118029,89.0313815 C20.7142735,89.0313815 19.7146265,89.8312704 19.3888029,90.9207889 C16.2337735,88.5926778 13.4293029,85.8173444 11.0717735,82.6867889 C11.0888324,82.6867889 11.1050382,82.6919 11.1220971,82.6919 C12.5831853,82.6919 13.7670676,81.5086778 13.7670676,80.0511593 C13.7670676,78.591937 12.5831853,77.4095667 11.1220971,77.4095667 C10.0004794,77.4095667 9.04689118,78.1097889 8.66306765,79.0945296 C5.07133235,73.0796037 3.00039118,66.0577889 3.00039118,58.5597889 L3.00039118,43.8261593 C3.00039118,36.2549 5.10800882,29.1683444 8.76371471,23.1150852 C9.19786176,23.9814185 10.0857735,24.5819741 11.1220971,24.5819741 C12.5831853,24.5819741 13.7670676,23.4004556 13.7670676,21.9412333 C13.7670676,20.5654926 12.7111265,19.4495667 11.3668912,19.3243444 C13.68945,16.3130481 16.4265382,13.6390852 19.4962735,11.3876407 C19.9082441,12.3136037 20.8328324,12.9610111 21.9118029,12.9610111 C23.3720382,12.9610111 24.5567735,11.7777889 24.5567735,10.3194185 C24.5567735,9.65071481 24.2991853,9.04675185 23.8889206,8.58164074 C29.6445676,5.41104815 36.25145,3.60171481 43.2762735,3.60171481 C50.4196559,3.60171481 57.1305971,5.47749259 62.9536265,8.7486037 C62.6252441,9.18815926 62.4248029,9.72823333 62.4248029,10.3194185 C62.4248029,11.7777889 63.6086853,12.9610111 65.0697735,12.9610111 C66.0591853,12.9610111 66.9112735,12.4115667 67.3641853,11.6082704 C70.3315676,13.8256407 72.9756853,16.4476407 75.2317147,19.3831222 C74.0751265,19.6650852 73.2136559,20.6992333 73.2136559,21.9412333 C73.2136559,23.4004556 74.3983912,24.5819741 75.8586265,24.5819741 C76.7422735,24.5819741 77.5193029,24.1458259 77.9995088,23.4813815 C81.5221559,29.4545667 83.5521559,36.4065296 83.5521559,43.8261593 L83.5521559,58.5597889 Z M61.1232147,98.9767519 C60.4024794,99.8243444 59.7243912,100.702604 59.0761559,101.599604 L33.97495,115.06653 C33.3898324,112.981196 32.6452147,110.944419 31.7513324,108.972381 L45.2465676,101.731641 C51.4747441,101.451381 57.3600382,99.843937 62.6354794,97.1955296 L61.1232147,98.9767519 Z M35.56995,157.151419 L50.9885676,148.879085 L50.9885676,157.151419 L35.56995,157.151419 Z M35.5639794,137.384196 L50.9885676,129.109307 L50.9885676,135.593604 L35.5639794,143.869344 L35.5639794,137.384196 Z M50.9885676,145.478493 L35.5639794,153.753381 L35.5639794,147.269937 L50.9885676,138.995048 L50.9885676,145.478493 Z M35.5639794,127.500159 L51.6990676,118.843641 C51.2828324,121.095085 51.0542441,123.38827 51.0073324,125.697641 L35.5639794,133.983604 L35.5639794,127.500159 Z M34.64195,117.794159 L34.7733029,118.038641 L55.9023618,106.703048 C54.5095088,109.349752 53.4040971,112.137011 52.5938029,115.012011 L52.5733324,114.973678 L35.4863618,124.139604 C35.3643912,121.9989 35.0803618,119.877789 34.64195,117.794159 Z M23.9170676,97.1955296 C28.5903324,99.5406778 33.7386853,101.070604 39.1830088,101.583419 L30.4190382,106.285641 C29.0193618,103.698567 27.3552735,101.244381 25.4293324,98.9767519 L23.9170676,97.1955296 Z M86.5263618,42.3234926 C85.7305676,19.1846407 66.6349206,0.605751852 43.2762735,0.605751852 C19.9176265,0.605751852 0.821979412,19.1846407 0.0261852941,42.3234926 L-0.000255882353,60.0633074 L0.0261852941,60.0633074 C0.450097059,72.3921593 6.07183235,83.4253444 14.7650088,91.0451593 L14.7607441,91.0494185 L23.1408912,100.915567 C29.2172441,108.068567 32.5633324,117.175715 32.5633324,126.555456 L32.5633324,160.148233 L53.9883618,160.148233 L53.9883618,126.555456 C53.9883618,117.175715 57.3353029,108.068567 63.4116559,100.915567 L71.7918029,91.0494185 L71.7875382,91.0451593 C80.4798618,83.4253444 86.10245,72.3921593 86.5263618,60.0633074 L86.5528029,42.3234926 L86.5263618,42.3234926 Z" id="Fill-1" fill="#fff" mask="url(#mask-2)"></path>
                        </g>
                        <path d="M32.7009971,89.2779926 C31.2407618,89.2779926 30.0560265,90.4612148 30.0560265,91.9195852 C30.0560265,93.3779556 31.2407618,94.5611778 32.7009971,94.5611778 C34.1620853,94.5611778 35.3459676,93.3779556 35.3459676,91.9195852 C35.3459676,90.4612148 34.1620853,89.2779926 32.7009971,89.2779926" id="Fill-4" fill="#000000"></path>
                        <path d="M43.4906176,89.2779926 C42.0303824,89.2779926 40.8456471,90.4612148 40.8456471,91.9195852 C40.8456471,93.3779556 42.0303824,94.5611778 43.4906176,94.5611778 C44.9508529,94.5611778 46.1355882,93.3779556 46.1355882,91.9195852 C46.1355882,90.4612148 44.9508529,89.2779926 43.4906176,89.2779926" id="Fill-6" fill="#000000"></path>
                        <path d="M54.2798118,89.2779926 C52.8195765,89.2779926 51.6348412,90.4612148 51.6348412,91.9195852 C51.6348412,93.3779556 52.8195765,94.5611778 54.2798118,94.5611778 C55.7409,94.5611778 56.9247824,93.3779556 56.9247824,91.9195852 C56.9247824,90.4612148 55.7409,89.2779926 54.2798118,89.2779926" id="Fill-8" fill="#000000"></path>
                        <path d="M32.7009971,7.92452222 C31.2407618,7.92452222 30.0560265,9.10774444 30.0560265,10.5669667 C30.0560265,12.0244852 31.2407618,13.2077074 32.7009971,13.2077074 C34.1620853,13.2077074 35.3459676,12.0244852 35.3459676,10.5669667 C35.3459676,9.10774444 34.1620853,7.92452222 32.7009971,7.92452222" id="Fill-10" fill="#000000"></path>
                        <path d="M43.4906176,7.92452222 C42.0303824,7.92452222 40.8456471,9.10774444 40.8456471,10.5669667 C40.8456471,12.0244852 42.0303824,13.2077074 43.4906176,13.2077074 C44.9508529,13.2077074 46.1355882,12.0244852 46.1355882,10.5669667 C46.1355882,9.10774444 44.9508529,7.92452222 43.4906176,7.92452222" id="Fill-12" fill="#000000"></path>
                        <path d="M54.2798118,7.92452222 C52.8195765,7.92452222 51.6348412,9.10774444 51.6348412,10.5669667 C51.6348412,12.0244852 52.8195765,13.2077074 54.2798118,13.2077074 C55.7409,13.2077074 56.9247824,12.0244852 56.9247824,10.5669667 C56.9247824,9.10774444 55.7409,7.92452222 54.2798118,7.92452222" id="Fill-14" fill="#000000"></path>
                        <path d="M21.9117176,19.546763 C20.4514824,19.546763 19.2667471,20.7299852 19.2667471,22.1883556 C19.2667471,23.6467259 20.4514824,24.8290963 21.9117176,24.8290963 C23.3719529,24.8290963 24.5566882,23.6467259 24.5566882,22.1883556 C24.5566882,20.7299852 23.3719529,19.546763 21.9117176,19.546763" id="Fill-16" fill="#000000"></path>
                        <path d="M32.7009971,19.546763 C31.2407618,19.546763 30.0560265,20.7299852 30.0560265,22.1883556 C30.0560265,23.6467259 31.2407618,24.8290963 32.7009971,24.8290963 C34.1620853,24.8290963 35.3459676,23.6467259 35.3459676,22.1883556 C35.3459676,20.7299852 34.1620853,19.546763 32.7009971,19.546763" id="Fill-18" fill="#000000"></path>
                        <path d="M43.4906176,19.546763 C42.0303824,19.546763 40.8456471,20.7299852 40.8456471,22.1883556 C40.8456471,23.6467259 42.0303824,24.8290963 43.4906176,24.8290963 C44.9508529,24.8290963 46.1355882,23.6467259 46.1355882,22.1883556 C46.1355882,20.7299852 44.9508529,19.546763 43.4906176,19.546763" id="Fill-20" fill="#000000"></path>
                        <path d="M54.2798118,19.546763 C52.8195765,19.546763 51.6348412,20.7299852 51.6348412,22.1883556 C51.6348412,23.6467259 52.8195765,24.8290963 54.2798118,24.8290963 C55.7409,24.8290963 56.9247824,23.6467259 56.9247824,22.1883556 C56.9247824,20.7299852 55.7409,19.546763 54.2798118,19.546763" id="Fill-22" fill="#000000"></path>
                        <path d="M65.0694324,19.546763 C63.6091971,19.546763 62.4244618,20.7299852 62.4244618,22.1883556 C62.4244618,23.6467259 63.6091971,24.8290963 65.0694324,24.8290963 C66.5296676,24.8290963 67.7144029,23.6467259 67.7144029,22.1883556 C67.7144029,20.7299852 66.5296676,19.546763 65.0694324,19.546763" id="Fill-24" fill="#000000"></path>
                        <path d="M11.1220971,31.1690889 C9.66186176,31.1690889 8.47712647,32.3514593 8.47712647,33.8106815 C8.47712647,35.2682 9.66186176,36.4514222 11.1220971,36.4514222 C12.5831853,36.4514222 13.7670676,35.2682 13.7670676,33.8106815 C13.7670676,32.3514593 12.5831853,31.1690889 11.1220971,31.1690889" id="Fill-26" fill="#000000"></path>
                        <path d="M21.9117176,31.1690889 C20.4514824,31.1690889 19.2667471,32.3514593 19.2667471,33.8106815 C19.2667471,35.2682 20.4514824,36.4514222 21.9117176,36.4514222 C23.3719529,36.4514222 24.5566882,35.2682 24.5566882,33.8106815 C24.5566882,32.3514593 23.3719529,31.1690889 21.9117176,31.1690889" id="Fill-28" fill="#000000"></path>
                        <path d="M32.7009971,31.1690889 C31.2407618,31.1690889 30.0560265,32.3514593 30.0560265,33.8106815 C30.0560265,35.2682 31.2407618,36.4514222 32.7009971,36.4514222 C34.1620853,36.4514222 35.3459676,35.2682 35.3459676,33.8106815 C35.3459676,32.3514593 34.1620853,31.1690889 32.7009971,31.1690889" id="Fill-30" fill="#000000"></path>
                        <path d="M43.4906176,31.1690889 C42.0303824,31.1690889 40.8456471,32.3514593 40.8456471,33.8106815 C40.8456471,35.2682 42.0303824,36.4514222 43.4906176,36.4514222 C44.9508529,36.4514222 46.1355882,35.2682 46.1355882,33.8106815 C46.1355882,32.3514593 44.9508529,31.1690889 43.4906176,31.1690889" id="Fill-32" fill="#000000"></path>
                        <path d="M54.2798118,31.1690889 C52.8195765,31.1690889 51.6348412,32.3514593 51.6348412,33.8106815 C51.6348412,35.2682 52.8195765,36.4514222 54.2798118,36.4514222 C55.7409,36.4514222 56.9247824,35.2682 56.9247824,33.8106815 C56.9247824,32.3514593 55.7409,31.1690889 54.2798118,31.1690889" id="Fill-34" fill="#000000"></path>
                        <path d="M65.0694324,31.1690889 C63.6091971,31.1690889 62.4244618,32.3514593 62.4244618,33.8106815 C62.4244618,35.2682 63.6091971,36.4514222 65.0694324,36.4514222 C66.5296676,36.4514222 67.7144029,35.2682 67.7144029,33.8106815 C67.7144029,32.3514593 66.5296676,31.1690889 65.0694324,31.1690889" id="Fill-36" fill="#000000"></path>
                        <path d="M75.8586265,31.1690889 C74.3983912,31.1690889 73.2136559,32.3514593 73.2136559,33.8106815 C73.2136559,35.2682 74.3983912,36.4514222 75.8586265,36.4514222 C77.3197147,36.4514222 78.5035971,35.2682 78.5035971,33.8106815 C78.5035971,32.3514593 77.3197147,31.1690889 75.8586265,31.1690889" id="Fill-38" fill="#000000"></path>
                        <path d="M11.1220971,42.790563 C9.66186176,42.790563 8.47712647,43.9737852 8.47712647,45.4321556 C8.47712647,46.8905259 9.66186176,48.0728963 11.1220971,48.0728963 C12.5831853,48.0728963 13.7670676,46.8905259 13.7670676,45.4321556 C13.7670676,43.9737852 12.5831853,42.790563 11.1220971,42.790563" id="Fill-40" fill="#000000"></path>
                        <path d="M21.9117176,42.790563 C20.4514824,42.790563 19.2667471,43.9737852 19.2667471,45.4321556 C19.2667471,46.8905259 20.4514824,48.0728963 21.9117176,48.0728963 C23.3719529,48.0728963 24.5566882,46.8905259 24.5566882,45.4321556 C24.5566882,43.9737852 23.3719529,42.790563 21.9117176,42.790563" id="Fill-42" fill="#000000"></path>
                        <path d="M32.7009971,42.790563 C31.2407618,42.790563 30.0560265,43.9737852 30.0560265,45.4321556 C30.0560265,46.8905259 31.2407618,48.0728963 32.7009971,48.0728963 C34.1620853,48.0728963 35.3459676,46.8905259 35.3459676,45.4321556 C35.3459676,43.9737852 34.1620853,42.790563 32.7009971,42.790563" id="Fill-44" fill="#000000"></path>
                        <path d="M43.4906176,42.790563 C42.0303824,42.790563 40.8456471,43.9737852 40.8456471,45.4321556 C40.8456471,46.8905259 42.0303824,48.0728963 43.4906176,48.0728963 C44.9508529,48.0728963 46.1355882,46.8905259 46.1355882,45.4321556 C46.1355882,43.9737852 44.9508529,42.790563 43.4906176,42.790563" id="Fill-46" fill="#000000"></path>
                        <path d="M54.2798118,42.790563 C52.8195765,42.790563 51.6348412,43.9737852 51.6348412,45.4321556 C51.6348412,46.8905259 52.8195765,48.0728963 54.2798118,48.0728963 C55.7409,48.0728963 56.9247824,46.8905259 56.9247824,45.4321556 C56.9247824,43.9737852 55.7409,42.790563 54.2798118,42.790563" id="Fill-48" fill="#000000"></path>
                        <path d="M65.0694324,42.790563 C63.6091971,42.790563 62.4244618,43.9737852 62.4244618,45.4321556 C62.4244618,46.8905259 63.6091971,48.0728963 65.0694324,48.0728963 C66.5296676,48.0728963 67.7144029,46.8905259 67.7144029,45.4321556 C67.7144029,43.9737852 66.5296676,42.790563 65.0694324,42.790563" id="Fill-50" fill="#000000"></path>
                        <path d="M75.8586265,42.790563 C74.3983912,42.790563 73.2136559,43.9737852 73.2136559,45.4321556 C73.2136559,46.8905259 74.3983912,48.0728963 75.8586265,48.0728963 C77.3197147,48.0728963 78.5035971,46.8905259 78.5035971,45.4321556 C78.5035971,43.9737852 77.3197147,42.790563 75.8586265,42.790563" id="Fill-52" fill="#000000"></path>
                        <path d="M11.1220971,54.4128037 C9.66186176,54.4128037 8.47712647,55.5951741 8.47712647,57.0543963 C8.47712647,58.5119148 9.66186176,59.695137 11.1220971,59.695137 C12.5831853,59.695137 13.7670676,58.5119148 13.7670676,57.0543963 C13.7670676,55.5951741 12.5831853,54.4128037 11.1220971,54.4128037" id="Fill-54" fill="#000000"></path>
                        <path d="M21.9117176,54.4128037 C20.4514824,54.4128037 19.2667471,55.5951741 19.2667471,57.0543963 C19.2667471,58.5119148 20.4514824,59.695137 21.9117176,59.695137 C23.3719529,59.695137 24.5566882,58.5119148 24.5566882,57.0543963 C24.5566882,55.5951741 23.3719529,54.4128037 21.9117176,54.4128037" id="Fill-56" fill="#000000"></path>
                        <path d="M32.7009971,54.4128037 C31.2407618,54.4128037 30.0560265,55.5951741 30.0560265,57.0543963 C30.0560265,58.5119148 31.2407618,59.695137 32.7009971,59.695137 C34.1620853,59.695137 35.3459676,58.5119148 35.3459676,57.0543963 C35.3459676,55.5951741 34.1620853,54.4128037 32.7009971,54.4128037" id="Fill-58" fill="#000000"></path>
                        <path d="M43.4906176,54.4128037 C42.0303824,54.4128037 40.8456471,55.5951741 40.8456471,57.0543963 C40.8456471,58.5119148 42.0303824,59.695137 43.4906176,59.695137 C44.9508529,59.695137 46.1355882,58.5119148 46.1355882,57.0543963 C46.1355882,55.5951741 44.9508529,54.4128037 43.4906176,54.4128037" id="Fill-60" fill="#000000"></path>
                        <path d="M54.2798118,54.4128037 C52.8195765,54.4128037 51.6348412,55.5951741 51.6348412,57.0543963 C51.6348412,58.5119148 52.8195765,59.695137 54.2798118,59.695137 C55.7409,59.695137 56.9247824,58.5119148 56.9247824,57.0543963 C56.9247824,55.5951741 55.7409,54.4128037 54.2798118,54.4128037" id="Fill-62" fill="#000000"></path>
                        <path d="M65.0694324,54.4128037 C63.6091971,54.4128037 62.4244618,55.5951741 62.4244618,57.0543963 C62.4244618,58.5119148 63.6091971,59.695137 65.0694324,59.695137 C66.5296676,59.695137 67.7144029,58.5119148 67.7144029,57.0543963 C67.7144029,55.5951741 66.5296676,54.4128037 65.0694324,54.4128037" id="Fill-64" fill="#000000"></path>
                        <path d="M75.8586265,54.4128037 C74.3983912,54.4128037 73.2136559,55.5951741 73.2136559,57.0543963 C73.2136559,58.5119148 74.3983912,59.695137 75.8586265,59.695137 C77.3197147,59.695137 78.5035971,58.5119148 78.5035971,57.0543963 C78.5035971,55.5951741 77.3197147,54.4128037 75.8586265,54.4128037" id="Fill-66" fill="#000000"></path>
                        <path d="M11.1220971,66.0342778 C9.66186176,66.0342778 8.47712647,67.2175 8.47712647,68.6758704 C8.47712647,70.1342407 9.66186176,71.3166111 11.1220971,71.3166111 C12.5831853,71.3166111 13.7670676,70.1342407 13.7670676,68.6758704 C13.7670676,67.2175 12.5831853,66.0342778 11.1220971,66.0342778" id="Fill-68" fill="#000000"></path>
                        <path d="M21.9117176,66.0342778 C20.4514824,66.0342778 19.2667471,67.2175 19.2667471,68.6758704 C19.2667471,70.1342407 20.4514824,71.3166111 21.9117176,71.3166111 C23.3719529,71.3166111 24.5566882,70.1342407 24.5566882,68.6758704 C24.5566882,67.2175 23.3719529,66.0342778 21.9117176,66.0342778" id="Fill-70" fill="#000000"></path>
                        <path d="M32.7009971,66.0342778 C31.2407618,66.0342778 30.0560265,67.2175 30.0560265,68.6758704 C30.0560265,70.1342407 31.2407618,71.3166111 32.7009971,71.3166111 C34.1620853,71.3166111 35.3459676,70.1342407 35.3459676,68.6758704 C35.3459676,67.2175 34.1620853,66.0342778 32.7009971,66.0342778" id="Fill-72" fill="#000000"></path>
                        <path d="M43.4906176,66.0342778 C42.0303824,66.0342778 40.8456471,67.2175 40.8456471,68.6758704 C40.8456471,70.1342407 42.0303824,71.3166111 43.4906176,71.3166111 C44.9508529,71.3166111 46.1355882,70.1342407 46.1355882,68.6758704 C46.1355882,67.2175 44.9508529,66.0342778 43.4906176,66.0342778" id="Fill-74" fill="#000000"></path>
                        <path d="M54.2798118,66.0342778 C52.8195765,66.0342778 51.6348412,67.2175 51.6348412,68.6758704 C51.6348412,70.1342407 52.8195765,71.3166111 54.2798118,71.3166111 C55.7409,71.3166111 56.9247824,70.1342407 56.9247824,68.6758704 C56.9247824,67.2175 55.7409,66.0342778 54.2798118,66.0342778" id="Fill-76" fill="#000000"></path>
                        <path d="M65.0694324,66.0342778 C63.6091971,66.0342778 62.4244618,67.2175 62.4244618,68.6758704 C62.4244618,70.1342407 63.6091971,71.3166111 65.0694324,71.3166111 C66.5296676,71.3166111 67.7144029,70.1342407 67.7144029,68.6758704 C67.7144029,67.2175 66.5296676,66.0342778 65.0694324,66.0342778" id="Fill-78" fill="#000000"></path>
                        <path d="M75.8586265,66.0342778 C74.3983912,66.0342778 73.2136559,67.2175 73.2136559,68.6758704 C73.2136559,70.1342407 74.3983912,71.3166111 75.8586265,71.3166111 C77.3197147,71.3166111 78.5035971,70.1342407 78.5035971,68.6758704 C78.5035971,67.2175 77.3197147,66.0342778 75.8586265,66.0342778" id="Fill-80" fill="#000000"></path>
                        <path d="M21.9117176,77.6565185 C20.4514824,77.6565185 19.2667471,78.8388889 19.2667471,80.2981111 C19.2667471,81.7556296 20.4514824,82.9388519 21.9117176,82.9388519 C23.3719529,82.9388519 24.5566882,81.7556296 24.5566882,80.2981111 C24.5566882,78.8388889 23.3719529,77.6565185 21.9117176,77.6565185" id="Fill-82" fill="#000000"></path>
                        <path d="M32.7009971,77.6565185 C31.2407618,77.6565185 30.0560265,78.8388889 30.0560265,80.2981111 C30.0560265,81.7556296 31.2407618,82.9388519 32.7009971,82.9388519 C34.1620853,82.9388519 35.3459676,81.7556296 35.3459676,80.2981111 C35.3459676,78.8388889 34.1620853,77.6565185 32.7009971,77.6565185" id="Fill-84" fill="#000000"></path>
                        <path d="M43.4906176,77.6565185 C42.0303824,77.6565185 40.8456471,78.8388889 40.8456471,80.2981111 C40.8456471,81.7556296 42.0303824,82.9388519 43.4906176,82.9388519 C44.9508529,82.9388519 46.1355882,81.7556296 46.1355882,80.2981111 C46.1355882,78.8388889 44.9508529,77.6565185 43.4906176,77.6565185" id="Fill-86" fill="#000000"></path>
                        <path d="M54.2798118,77.6565185 C52.8195765,77.6565185 51.6348412,78.8388889 51.6348412,80.2981111 C51.6348412,81.7556296 52.8195765,82.9388519 54.2798118,82.9388519 C55.7409,82.9388519 56.9247824,81.7556296 56.9247824,80.2981111 C56.9247824,78.8388889 55.7409,77.6565185 54.2798118,77.6565185" id="Fill-88" fill="#000000"></path>
                        <path d="M65.0694324,77.6565185 C63.6091971,77.6565185 62.4244618,78.8388889 62.4244618,80.2981111 C62.4244618,81.7556296 63.6091971,82.9388519 65.0694324,82.9388519 C66.5296676,82.9388519 67.7144029,81.7556296 67.7144029,80.2981111 C67.7144029,78.8388889 66.5296676,77.6565185 65.0694324,77.6565185" id="Fill-90" fill="#000000"></path>
                    </g>
                </g>
            </g>
        </g>
    </g>
</svg>