<?xml version="1.0" encoding="UTF-8"?>
<svg width="100px" height="256px" viewBox="0 0 100 256" version="1.1" xmlns="http://www.w3.org/2000/svg" xmlns:xlink="http://www.w3.org/1999/xlink">
    <!-- Generator: Sketch 49 (51002) - http://www.bohemiancoding.com/sketch -->
    <title>Tennis</title>
    <desc>Created with Sketch.</desc>
    <defs></defs>
    <g id="Page-1" stroke="none" stroke-width="1" fill="none" fill-rule="evenodd">
        <g id="Racquettes-Home" transform="translate(-1131.000000, -2031.000000)" fill="#000000">
            <g id="Section-3" transform="translate(1.000000, 1775.000000)">
                <g id="Rackets" transform="translate(222.000000, 207.000000)">
                    <path d="M950.785344,301.093533 L966.189261,292.818518 L966.189261,301.093533 L950.785344,301.093533 Z M966.189261,269.639786 L950.779379,277.918209 L950.779379,271.431811 L966.189261,263.15424 L966.189261,269.639786 Z M966.189261,279.527879 L950.779379,287.806302 L950.779379,281.319904 L966.189261,273.042333 L966.189261,279.527879 Z M966.189261,289.416823 L950.779379,297.694394 L950.779379,291.207996 L966.189261,282.930425 L966.189261,289.416823 Z M966.189261,255.746692 L966.189261,259.751693 L950.779379,268.029264 L950.779379,261.543718 L965.193976,253.801284 L966.189261,255.746692 Z M958.48432,240.692147 L963.828015,251.132419 L950.779379,258.142023 L950.779379,255.746692 L958.48432,240.692147 Z M945.100799,169.967232 C945.462953,170.08653 945.829368,170.19475 946.194931,170.303822 C946.55879,170.412042 946.922648,170.516854 947.288211,170.614849 C947.641844,170.709435 947.995477,170.803169 948.350815,170.888382 C948.873169,171.014497 949.397228,171.128682 949.922139,171.233494 C950.271511,171.30422 950.624292,171.366426 950.976221,171.426927 C951.365643,171.494245 951.755066,171.553894 952.145341,171.610134 C952.602933,171.675748 953.061378,171.733693 953.523231,171.783968 C953.934809,171.829131 954.346387,171.868329 954.758817,171.90071 C954.876411,171.909231 954.9923,171.92457 955.109894,171.933091 L955.113302,171.937351 L955.195959,171.941612 C955.365532,171.95269 955.535106,171.959507 955.703827,171.96888 L956.477559,172.011487 L956.306281,172.183616 L957.952593,172.092439 L959.598904,172.183616 L959.427626,172.011487 L960.201358,171.96888 C960.372636,171.959507 960.544766,171.951838 960.716043,171.94076 L960.791031,171.936499 L960.794439,171.933091 C960.911181,171.92457 961.026218,171.909231 961.142107,171.90071 C961.557094,171.868329 961.97208,171.829131 962.386214,171.783968 C962.842103,171.733693 963.295435,171.6766 963.747915,171.612691 C964.143302,171.554746 964.538689,171.494245 964.933225,171.426075 C965.282597,171.366426 965.631118,171.30422 965.978786,171.234346 C966.506253,171.129534 967.032868,171.013645 967.558631,170.886678 C967.909708,170.803169 968.25908,170.710287 968.608453,170.617405 C968.983389,170.516854 969.357473,170.408634 969.730705,170.297857 C970.108198,170.184524 970.484838,170.071191 970.85807,169.948485 L970.868296,169.95871 L971.75877,169.645127 L973.353101,169.082723 L958.533744,202.462279 L945.100799,169.967232 Z M980.338846,161.959785 C980.126666,162.103795 979.908521,162.233318 979.693785,162.373067 C979.237044,162.672164 978.781156,162.972965 978.315042,163.253316 C976.16768,164.540881 973.936809,165.62564 971.644584,166.495662 L968.938226,163.790156 L975.685375,157.043007 L980.492229,161.849861 C980.440249,161.88565 980.390826,161.924848 980.338846,161.959785 Z M911.00716,110.097574 L911.401695,110.492109 L911.500542,110.590956 L911.00716,111.08519 C911.006307,110.919025 910.997786,110.757121 910.997786,110.590956 C910.997786,110.425643 911.006307,110.263739 911.00716,110.097574 Z M1004.40379,110.590956 L1004.50349,110.492109 L1004.89717,110.097574 C1004.89803,110.263739 1004.9074,110.425643 1004.9074,110.590956 C1004.9074,110.757121 1004.89803,110.919025 1004.89717,111.08519 L1004.40379,110.590956 Z M990.044583,113.964531 L986.671009,110.590956 L990.044583,107.217382 L993.417306,103.844659 L1000.16445,110.590956 L993.417306,117.338105 L990.044583,113.964531 Z M984.551767,143.937279 L977.804617,137.19013 L981.178192,133.816555 L984.551767,130.443833 L987.924489,133.816555 L991.298063,137.19013 L987.924489,140.563705 L984.551767,143.937279 Z M975.685375,152.804523 L972.311801,149.430948 L968.938226,146.057373 L975.685375,139.310224 L982.432524,146.057373 L979.05895,149.430948 L975.685375,152.804523 Z M963.445409,158.297339 L960.071835,154.923765 L963.445409,151.55019 L966.818132,148.176616 L970.191706,151.55019 L973.565281,154.923765 L966.818132,161.670062 L963.445409,158.297339 Z M945.712627,151.55019 L949.086201,148.176616 L952.459776,151.55019 L955.83335,154.923765 L949.086201,161.670914 L942.339052,154.923765 L945.712627,151.55019 Z M933.472661,146.057373 L940.21981,139.310224 L946.966959,146.057373 L943.593384,149.430948 L940.21981,152.804523 L936.846235,149.430948 L933.472661,146.057373 Z M924.606269,137.19013 L927.979844,133.816555 L931.352566,130.443833 L934.726141,133.816555 L938.099716,137.19013 L931.352566,143.937279 L927.979844,140.563705 L924.606269,137.19013 Z M931.352566,77.2454852 L938.099716,83.9926343 L934.726141,87.3662088 L931.352566,90.7389312 L927.979844,87.3662088 L924.606269,83.9926343 L927.979844,80.6190597 L931.352566,77.2454852 Z M940.21981,68.3790938 L943.593384,71.7518163 L946.966959,75.1253908 L940.21981,81.8725399 L933.472661,75.1253908 L936.846235,71.7518163 L940.21981,68.3790938 Z M949.086201,59.5127025 L952.459776,62.8862771 L955.83335,66.2598516 L952.459776,69.6325741 L949.086201,73.0061486 L945.712627,69.6325741 L942.339052,66.2598516 L945.712627,62.8862771 L949.086201,59.5127025 Z M973.565281,66.2598516 L970.191706,69.6325741 L966.818132,73.0061486 L963.445409,69.6325741 L960.071835,66.2598516 L963.445409,62.8862771 L966.818132,59.5127025 L970.191706,62.8862771 L973.565281,66.2598516 Z M982.432524,75.1253908 L975.685375,81.8725399 L968.938226,75.1253908 L972.311801,71.7518163 L975.685375,68.3790938 L979.05895,71.7518163 L982.432524,75.1253908 Z M991.298063,83.9926343 L987.924489,87.3662088 L984.551767,90.7389312 L981.178192,87.3662088 L977.804617,83.9926343 L984.551767,77.2454852 L987.924489,80.6190597 L991.298063,83.9926343 Z M984.551767,108.471714 L981.178192,105.098139 L977.804617,101.724565 L984.551767,94.9782678 L987.924489,98.3518423 L991.298063,101.725417 L987.924489,105.098139 L984.551767,108.471714 Z M991.298063,119.4582 L987.924489,122.831774 L984.551767,126.204497 L981.178192,122.831774 L977.804617,119.4582 L984.551767,112.71105 L987.924489,116.084625 L991.298063,119.4582 Z M975.685375,135.070888 L972.311801,131.697313 L968.938226,128.324591 L972.311801,124.951016 L975.685375,121.577442 L979.05895,124.951016 L982.432524,128.324591 L979.05895,131.697313 L975.685375,135.070888 Z M963.445409,140.563705 L960.071835,137.19013 L963.445409,133.816555 L966.818132,130.443833 L970.191706,133.816555 L973.565281,137.19013 L966.818132,143.937279 L963.445409,140.563705 Z M945.712627,133.816555 L949.086201,130.443833 L952.459776,133.816555 L955.83335,137.19013 L949.086201,143.937279 L942.339052,137.19013 L945.712627,133.816555 Z M933.472661,128.324591 L936.846235,124.951016 L940.21981,121.577442 L943.593384,124.951016 L946.966959,128.324591 L943.593384,131.697313 L940.21981,135.070888 L936.846235,131.697313 L933.472661,128.324591 Z M922.487027,103.844659 L925.860602,107.217382 L929.233324,110.590956 L925.860602,113.964531 L922.487027,117.338105 L915.739878,110.590956 L922.487027,103.844659 Z M940.21981,86.1118765 L943.593384,89.485451 L946.966959,92.8590256 L940.21981,99.6061747 L933.472661,92.8590256 L936.846235,89.485451 L940.21981,86.1118765 Z M955.83335,83.9926343 L952.459776,87.3662088 L949.086201,90.7397834 L945.712627,87.3662088 L942.339052,83.9926343 L949.086201,77.2454852 L955.83335,83.9926343 Z M970.191706,87.3662088 L966.818132,90.7389312 L963.445409,87.3662088 L960.071835,83.9926343 L963.445409,80.6190597 L966.818132,77.2454852 L973.565281,83.9926343 L970.191706,87.3662088 Z M966.818132,126.204497 L963.445409,122.831774 L960.071835,119.4582 L963.445409,116.084625 L966.818132,112.71105 L973.565281,119.4582 L970.191706,122.831774 L966.818132,126.204497 Z M942.339052,119.4582 L949.086201,112.71105 L952.459776,116.084625 L955.83335,119.4582 L949.086201,126.205349 L945.712627,122.831774 L942.339052,119.4582 Z M955.83335,101.724565 L952.459776,105.098139 L949.086201,108.471714 L945.712627,105.098139 L942.339052,101.724565 L949.086201,94.9782678 L955.83335,101.724565 Z M936.846235,107.217382 L940.21981,103.844659 L943.593384,107.217382 L946.966959,110.590956 L940.21981,117.338105 L933.472661,110.590956 L936.846235,107.217382 Z M957.952593,117.337253 L954.579018,113.964531 L951.205443,110.590956 L954.579018,107.217382 L957.952593,103.844659 L961.326167,107.217382 L964.69889,110.590956 L961.326167,113.964531 L957.952593,117.337253 Z M970.191706,105.098139 L966.818132,108.471714 L963.445409,105.098139 L960.071835,101.725417 L963.445409,98.3518423 L966.818132,94.9782678 L973.565281,101.724565 L970.191706,105.098139 Z M957.952593,86.1118765 L961.326167,89.485451 L964.69889,92.8590256 L961.326167,96.2326001 L957.952593,99.6053226 L951.205443,92.8590256 L954.579018,89.485451 L957.952593,86.1118765 Z M924.606269,101.725417 L927.979844,98.3518423 L931.352566,94.9782678 L938.099716,101.724565 L934.726141,105.098139 L931.352566,108.471714 L927.979844,105.098139 L924.606269,101.725417 Z M931.352566,126.204497 L927.979844,122.831774 L924.606269,119.4582 L927.979844,116.084625 L931.352566,112.71105 L938.099716,119.4582 L934.726141,122.831774 L931.352566,126.204497 Z M957.952593,135.070888 L954.579018,131.697313 L951.205443,128.323739 L957.952593,121.577442 L961.326167,124.951016 L964.69889,128.324591 L961.326167,131.697313 L957.952593,135.070888 Z M982.432524,110.590956 L975.685375,117.338105 L968.938226,110.590956 L972.311801,107.217382 L975.685375,103.844659 L979.05895,107.217382 L982.432524,110.590956 Z M982.432524,92.8590256 L975.685375,99.6061747 L968.938226,92.8590256 L972.311801,89.485451 L975.685375,86.1118765 L979.05895,89.485451 L982.432524,92.8590256 Z M993.417306,86.1118765 L996.79088,89.485451 L1000.16445,92.8590256 L993.417306,99.6053226 L990.044583,96.2326001 L986.671009,92.8590256 L990.044583,89.485451 L993.417306,86.1118765 Z M957.952593,68.3790938 L961.326167,71.7518163 L964.69889,75.1253908 L961.326167,78.4989654 L957.952593,81.8725399 L951.205443,75.1253908 L954.579018,71.7518163 L957.952593,68.3790938 Z M922.487027,86.1118765 L925.860602,89.485451 L929.233324,92.8590256 L925.860602,96.2326001 L922.487027,99.6053226 L915.739878,92.8590256 L919.113453,89.485451 L922.487027,86.1118765 Z M922.487027,135.070888 L919.113453,131.697313 L915.739878,128.323739 L922.487027,121.577442 L925.860602,124.951016 L929.233324,128.324591 L925.860602,131.697313 L922.487027,135.070888 Z M957.952593,152.80367 L954.579018,149.430948 L951.205443,146.057373 L957.952593,139.310224 L961.326167,142.683799 L964.69889,146.057373 L961.326167,149.430948 L957.952593,152.80367 Z M964.69889,163.790156 L959.495796,168.993249 C958.981963,169.0137 958.469834,169.041821 957.95174,169.041821 C957.434499,169.041821 956.92237,169.0137 956.409389,168.993249 L951.205443,163.790156 L957.952593,157.043007 L961.326167,160.416582 L964.69889,163.790156 Z M993.417306,135.070888 L990.044583,131.697313 L986.671009,128.324591 L990.044583,124.951016 L993.417306,121.577442 L1000.16445,128.323739 L996.79088,131.697313 L993.417306,135.070888 Z M1003.91637,98.6381573 C1004.00073,99.1443213 1004.07146,99.6555981 1004.14474,100.166023 C1004.19246,100.496648 1004.24359,100.826422 1004.28705,101.1579 C1004.37226,101.816595 1004.44555,102.47955 1004.51286,103.14421 C1004.53076,103.318896 1004.54951,103.49273 1004.56655,103.667416 C1004.63472,104.394282 1004.69266,105.124555 1004.73953,105.857385 C1004.74294,105.906809 1004.74635,105.957084 1004.7489,106.00736 L1002.92279,107.834322 L1002.28455,108.471714 L995.5374,101.724565 L1002.28455,94.9782678 L1003.45367,96.1473873 C1003.62239,96.9705429 1003.77663,97.8022198 1003.91637,98.6381573 Z M957.95174,52.1417958 C958.469834,52.1417958 958.981963,52.1690638 959.495796,52.1895149 L964.69889,57.3934603 L961.326167,60.7670349 L957.952593,64.1397573 L954.579018,60.7670349 L951.205443,57.3934603 L956.409389,52.1895149 C956.92237,52.1690638 957.434499,52.1417958 957.95174,52.1417958 Z M911.338637,103.666564 C911.354828,103.49273 911.373575,103.319748 911.391469,103.146766 C911.458787,102.480402 911.532922,101.816595 911.618135,101.156195 C911.660742,100.827274 911.711869,100.503465 911.758736,100.176248 C911.832872,99.661563 911.903598,99.1468777 911.988811,98.6373052 C912.12856,97.8005156 912.281943,96.9705429 912.451516,96.1473873 L913.620636,94.9782678 L920.367785,101.724565 L913.620636,108.471714 L912.295577,107.146655 L911.15543,106.00736 C911.158838,105.957084 911.161395,105.906809 911.164803,105.857385 C911.21167,105.123703 911.269615,104.394282 911.338637,103.666564 Z M911.760441,121.018446 C911.712721,120.686968 911.661594,120.357195 911.618135,120.025717 C911.532922,119.36617 911.459639,118.702362 911.392321,118.037702 C911.374427,117.863868 911.354828,117.690034 911.338637,117.515348 C911.269615,116.788483 911.21167,116.058209 911.164803,115.325379 C911.161395,115.275956 911.158838,115.22568 911.15543,115.175404 L913.620636,112.71105 L920.367785,119.4582 L913.620636,126.205349 L912.451516,125.036229 C912.281943,124.212221 912.12856,123.380544 911.987959,122.543755 C911.90445,122.038443 911.833724,121.528018 911.760441,121.018446 Z M999.378793,83.1106818 C999.525359,83.451533 999.662551,83.7966448 999.803153,84.1400524 C999.999994,84.6223568 1000.19854,85.1012527 1000.38516,85.589522 C1000.46611,85.802554 1000.54024,86.0206988 1000.61949,86.235435 C1001.13588,87.6329249 1001.61392,89.0508658 1002.03914,90.4943705 L995.5374,83.9926343 L998.455086,81.0749482 C998.585462,81.3493334 998.712429,81.6262749 998.839396,81.9040687 C999.020899,82.3054209 999.204959,82.7050689 999.378793,83.1106818 Z M992.83445,71.5115162 C993.186379,71.9980812 993.528934,72.495724 993.868934,72.9976273 C994.011239,73.2089551 994.156101,73.4168743 994.296702,73.6307584 C994.608581,74.1053937 994.910234,74.5902545 995.210183,75.0776716 C995.363566,75.3281973 995.522062,75.5744622 995.672888,75.8283964 C995.947274,76.2876933 996.208877,76.7563637 996.472184,77.2258862 C996.633237,77.5139055 996.800254,77.7976641 996.957045,78.089944 C996.986018,78.1419238 997.012434,78.1973121 997.040554,78.250144 L993.417306,81.8725399 L990.044583,78.4989654 L986.671009,75.1253908 L991.736909,70.0603423 C991.971245,70.3628477 992.206432,70.664501 992.435654,70.9738234 C992.568586,71.1527703 992.703222,71.3300129 992.83445,71.5115162 Z M983.890515,61.900365 C984.034525,62.0188108 984.179387,62.1364045 984.322544,62.2574066 C984.807405,62.6681323 985.283744,63.0941963 985.755823,63.5270773 C985.881938,63.6421146 986.008905,63.7545955 986.133316,63.871337 C986.61562,64.3238169 987.088551,64.7890788 987.55637,65.2637141 C987.66459,65.3736386 987.774514,65.4793024 987.88103,65.5900791 C988.365891,66.0902782 988.840526,66.6049634 989.308345,67.1290221 C989.391001,67.2219041 989.476214,67.3113775 989.55887,67.4051116 C989.651752,67.5107755 989.738669,67.6224042 989.830699,67.7280681 L987.183138,70.3747775 L984.551767,73.0061486 L981.178192,69.6325741 L977.804617,66.2589995 L982.931019,61.1334499 C983.252271,61.3856798 983.574376,61.6379096 983.890515,61.900365 Z M979.667369,58.7926544 C979.890627,58.9375162 980.118145,59.0730045 980.339698,59.222979 C980.390826,59.2579163 980.440249,59.2979663 980.492229,59.3329035 L975.685375,64.1406094 L972.311801,60.7670349 L968.938226,57.3934603 L971.644584,54.6871019 C973.936809,55.5562724 976.168532,56.6427356 978.317598,57.931153 C978.773487,58.2046861 979.220002,58.5012266 979.667369,58.7926544 Z M966.115978,53.0433471 C966.253171,53.0731716 966.390364,53.1047003 966.527556,53.1362291 C967.121489,53.2734217 967.71457,53.4242483 968.304243,53.5904133 C968.355371,53.6040473 968.406498,53.6202377 968.457626,53.6347239 L966.818132,55.273366 L964.223402,52.6777842 C964.280495,52.6871576 964.338439,52.6956789 964.396384,52.7059045 C964.970718,52.8047513 965.5442,52.9180843 966.115978,53.0433471 Z M949.382742,53.1345248 C949.515674,53.1038482 949.648606,53.0740237 949.78239,53.0450514 C950.357576,52.9189364 950.933615,52.8047513 951.511357,52.7050523 C951.567598,52.6948268 951.62469,52.6871576 951.681783,52.6777842 L950.081487,54.2780805 L949.086201,55.273366 L947.446707,53.6347239 C947.495278,53.6202377 947.54385,53.6057516 947.593273,53.5921175 C948.187206,53.4251004 948.784548,53.2725695 949.382742,53.1345248 Z M936.511349,58.617116 C936.866686,58.3895979 937.217763,58.1527063 937.578213,57.9354137 C939.730688,56.645292 941.964968,55.5579767 944.260601,54.6871019 L946.966959,57.3934603 L943.593384,60.7670349 L940.21981,64.1406094 L937.838964,61.7597639 L935.412104,59.3329035 C935.459823,59.2996705 935.505838,59.2638812 935.553557,59.2315003 C935.869697,59.0176162 936.191801,58.8216268 936.511349,58.617116 Z M926.624108,67.0983455 C927.079997,66.5896251 927.54185,66.0877218 928.013077,65.6003046 C928.133227,65.4758939 928.256786,65.3574481 928.376936,65.2355938 C928.832824,64.7737405 929.292973,64.3195563 929.762496,63.8790061 C929.897132,63.7537433 930.034325,63.6327412 930.169813,63.5091826 C930.631666,63.0839708 931.098632,62.6672802 931.57412,62.2642237 C931.724946,62.1355523 931.879182,62.0128459 932.03086,61.886731 C932.341887,61.6285362 932.658026,61.3814191 932.974166,61.1325978 L938.099716,66.2589995 L934.726141,69.6325741 L931.352566,73.0061486 L928.721195,70.3747775 L926.073634,67.7280681 C926.163107,67.6249606 926.24832,67.5158882 926.338646,67.4136329 C926.43238,67.3071169 926.529522,67.2040094 926.624108,67.0983455 Z M919.448339,77.1986181 C919.70483,76.7410254 919.960468,76.2825806 920.227184,75.8343613 C920.383975,75.5719059 920.548436,75.3154153 920.708636,75.0546642 C921.00262,74.5791768 921.297457,74.1036894 921.602518,73.6392797 C921.749084,73.4160221 921.899911,73.1995816 922.049034,72.9797326 C922.381363,72.4880548 922.717954,71.9989334 923.063918,71.5208896 C923.20111,71.3308651 923.341712,71.1451012 923.480608,70.957633 C923.706422,70.6542755 923.937349,70.3585871 924.168276,70.0603423 L929.233324,75.1253908 L925.860602,78.4989654 L922.487027,81.8725399 L918.864631,78.250144 C918.891899,78.1998685 918.916611,78.1461844 918.944731,78.0950567 C919.107488,77.7916992 919.28047,77.497715 919.448339,77.1986181 Z M915.517473,85.5946348 C915.706645,85.0978442 915.909452,84.610427 916.109702,84.1213056 C916.246894,83.7855672 916.380678,83.4489766 916.522984,83.1166467 C916.700226,82.7042168 916.887695,82.2968996 917.072606,81.8895825 C917.197017,81.6169015 917.321428,81.3442206 917.449247,81.0749482 L920.367785,83.9926343 L913.865197,90.4943705 C914.292965,89.0406402 914.775269,87.6124738 915.29592,86.2056105 C915.370907,86.0028041 915.440781,85.7965891 915.517473,85.5946348 Z M916.522132,138.062709 C916.381531,137.735492 916.249451,137.40231 916.113962,137.072536 C915.912008,136.579154 915.707497,136.085772 915.516621,135.585573 C915.442486,135.389584 915.374315,135.190186 915.301884,134.993344 C914.77953,133.581368 914.294669,132.147237 913.865197,130.688394 L920.367785,137.19013 L917.449247,140.107816 C917.32228,139.839396 917.197017,139.567567 917.073458,139.29659 C916.887695,138.886717 916.700226,138.477695 916.522132,138.062709 Z M923.065622,149.664431 C922.719658,149.185535 922.382216,148.696414 922.049034,148.203032 C921.899911,147.983183 921.748232,147.765038 921.601666,147.542633 C921.298309,147.079927 921.004325,146.606996 920.712045,146.132361 C920.55014,145.870757 920.384828,145.611711 920.226332,145.345847 C919.960468,144.900184 919.705682,144.443443 919.450895,143.988407 C919.282174,143.687606 919.10834,143.391917 918.943879,143.087708 C918.916611,143.03658 918.891899,142.982896 918.864631,142.93262 L922.487027,139.310224 L925.860602,142.683799 L929.233324,146.057373 L928.44255,146.847296 L924.168276,151.122422 C923.935645,150.822473 923.702162,150.524228 923.474644,150.217462 C923.338303,150.033403 923.200258,149.851047 923.065622,149.664431 Z M931.576676,158.920245 C931.101189,158.518041 930.634223,158.099646 930.170665,157.675286 C930.034325,157.550875 929.897132,157.429021 929.761644,157.302906 C929.29553,156.864912 928.837937,156.413284 928.384605,155.955692 C928.260194,155.828725 928.134079,155.70687 928.010521,155.579051 C927.546111,155.100155 927.091927,154.605921 926.642855,154.10487 C926.5406,153.989833 926.434936,153.879056 926.333533,153.764019 C926.244912,153.662615 926.162255,153.556952 926.074486,153.455548 L930.541341,148.988694 L931.352566,148.176616 L934.726141,151.55019 L938.099716,154.923765 L932.974166,160.049314 C932.65547,159.799641 932.335922,159.549115 932.022339,159.289216 C931.874069,159.165658 931.724094,159.04636 931.576676,158.920245 Z M936.396312,162.492365 C936.117666,162.312566 935.835612,162.142141 935.559522,161.955525 C935.510099,161.922292 935.46238,161.883946 935.412104,161.849861 L940.21981,157.043007 L946.966959,163.790156 L944.260601,166.495662 C941.964968,165.624788 939.732393,164.538324 937.581622,163.248203 C937.181122,163.007903 936.790847,162.747152 936.396312,162.492365 Z M949.78239,168.137713 C949.648606,168.108741 949.515674,168.078916 949.382742,168.048239 C948.784548,167.910195 948.187206,167.757664 947.593273,167.590647 C947.54385,167.576161 947.49613,167.562527 947.446707,167.54804 L949.086201,165.908546 L949.086201,165.909398 L951.681783,168.50498 C951.62469,168.495607 951.567598,168.487938 951.511357,168.477712 C950.933615,168.378865 950.357576,168.263828 949.78239,168.137713 Z M966.527556,168.047387 C966.390364,168.078916 966.253171,168.108741 966.115978,168.139417 C965.5442,168.26468 964.970718,168.378013 964.396384,168.477712 C964.338439,168.487085 964.280495,168.495607 964.223402,168.50498 L965.359289,167.369094 L966.818132,165.908546 L966.818132,165.909398 L966.818132,165.908546 L968.457626,167.54804 C968.406498,167.563379 968.355371,167.577865 968.304243,167.592351 C967.71457,167.758516 967.121489,167.909343 966.527556,168.047387 Z M989.309197,154.05289 C988.840526,154.577801 988.365039,155.093338 987.880178,155.59439 C987.775367,155.70261 987.667998,155.805717 987.562335,155.913085 C987.091108,156.391129 986.614768,156.8598 986.129907,157.314836 C986.009757,157.427317 985.887903,157.534685 985.766901,157.645461 C985.289709,158.084307 984.807405,158.515484 984.315727,158.931323 C984.180239,159.04636 984.042194,159.157989 983.905001,159.270469 C983.583749,159.537186 983.256532,159.792824 982.930167,160.049314 L977.804617,154.923765 L981.178192,151.55019 L984.551767,148.176616 L987.183138,150.807987 L989.830699,153.454696 C989.738669,153.561212 989.651752,153.672841 989.55887,153.777653 C989.477066,153.871387 989.391853,153.960008 989.309197,154.05289 Z M996.472184,143.956878 C996.208877,144.426401 995.947274,144.895923 995.672888,145.354368 C995.522062,145.608302 995.363566,145.854567 995.210183,146.105093 C994.910234,146.59251 994.608581,147.077371 994.296702,147.551154 C994.156101,147.765038 994.011239,147.973809 993.868934,148.185137 C993.528934,148.68704 993.186379,149.184683 992.83445,149.671248 C992.703222,149.852751 992.568586,150.029994 992.435654,150.208941 C992.206432,150.518263 991.971245,150.819064 991.736909,151.122422 L986.671009,146.057373 L990.044583,142.683799 L993.417306,139.310224 L997.040554,142.93262 C997.012434,142.985452 996.986018,143.040841 996.957045,143.09282 C996.800254,143.3851 996.633237,143.668859 996.472184,143.956878 Z M1000.38601,135.589834 C1000.19854,136.083216 999.997438,136.567225 999.798892,137.052085 C999.659995,137.392084 999.524507,137.732936 999.380497,138.068674 C999.204959,138.476843 999.020047,138.878196 998.837692,139.281252 C998.711577,139.558194 998.58461,139.834283 998.455086,140.107816 L995.5374,137.19013 L1002.03914,130.688394 C1001.61222,132.137863 1001.13162,133.560917 1000.61438,134.96352 C1000.53683,135.171439 1000.46526,135.383619 1000.38601,135.589834 Z M1004.56825,117.497453 C1004.55036,117.68833 1004.52905,117.877502 1004.50946,118.068379 C1004.44299,118.721109 1004.37141,119.372135 1004.2879,120.019752 C1004.24274,120.361455 1004.18991,120.701454 1004.14048,121.041453 C1004.06891,121.542505 1003.99903,122.04526 1003.91723,122.542051 C1003.77663,123.379692 1003.62239,124.211369 1003.45367,125.036229 L1002.28455,126.205349 L995.5374,119.4582 L1002.28455,112.71105 L1003.33608,113.762576 L1004.7489,115.174552 C1004.74549,115.240166 1004.74123,115.30578 1004.73697,115.370542 C1004.69096,116.082069 1004.63472,116.791039 1004.56825,117.497453 Z M1007.8515,113.160974 C1007.88644,112.245789 1007.90433,111.402182 1007.90433,110.590956 C1007.90433,109.780582 1007.88644,108.936976 1007.8515,108.02179 C1007.83616,107.554824 1007.81316,107.089562 1007.7893,106.625153 L1007.78333,106.509263 L1007.60438,103.152731 L1007.53281,103.22431 C1007.45441,102.419049 1007.37005,101.61464 1007.26609,100.819605 C1007.22604,100.507726 1007.17491,100.201812 1007.13145,99.8924897 C1007.12719,99.8660737 1007.12293,99.8388056 1007.11952,99.8123897 L1007.34363,100.037351 L1006.30063,95.1001221 L1006.20945,94.6646847 L1006.20434,94.6587198 C1006.05095,93.9574185 1005.87882,93.2331097 1005.6871,92.4781244 C1005.66409,92.3869467 1005.64193,92.2974733 1005.61893,92.2071477 C1005.58058,92.0597296 1005.54138,91.9106072 1005.50133,91.7606327 L1005.50644,91.756372 L1005.27552,90.9161739 L1004.59382,88.4305166 L1004.54524,88.4782358 C1004.51883,88.3947273 1004.49156,88.3120708 1004.46514,88.2285623 C1004.34926,87.8655558 1004.23677,87.500845 1004.11492,87.1395428 C1003.88485,86.455284 1003.63858,85.782103 1003.38891,85.1106261 C1003.25257,84.7425069 1003.1239,84.3684227 1002.98074,84.0020077 C1002.6237,83.0902308 1002.24876,82.1895315 1001.85678,81.3033185 C1001.5858,80.6914906 1001.29523,80.0924446 1001.00806,79.4916944 C1000.90325,79.2735497 1000.80611,79.0477358 1000.69874,78.8304431 L1000.71578,78.8134006 L1000.21729,77.8428268 L999.279094,76.012456 L999.240748,76.0499496 C999.228818,76.0277943 999.215184,76.0064911 999.202402,75.9834837 C998.824058,75.3026334 998.437191,74.6320087 998.037543,73.9707574 C997.972782,73.8633893 997.906316,73.7577255 997.840702,73.6512095 C996.611081,71.6418918 995.28517,69.7305688 993.870638,67.9266139 L993.897906,67.8993458 L993.032144,66.848672 L991.983174,65.5755929 L991.949089,65.6088259 C991.222224,64.7780011 990.477464,63.9735923 989.713105,63.1981559 C989.709697,63.1947474 989.706288,63.1904867 989.70288,63.1879304 C988.220177,61.6830724 986.670157,60.2855826 985.061339,59.00313 L985.100537,58.9647842 L983.703899,57.9294488 L982.666007,57.1591251 L982.649817,57.1761677 C980.954934,55.9891534 979.202107,54.927402 977.400709,53.9943219 L977.333391,53.9585325 C976.66447,53.6134207 975.989585,53.2844993 975.307883,52.9743248 C975.211592,52.9308662 975.117006,52.8848513 975.019863,52.8413928 C974.664526,52.6820449 974.30578,52.5337746 973.946182,52.3846522 L974.00157,52.3292639 L971.75877,51.5384892 L970.868296,51.2240539 L970.85807,51.2342795 C970.484838,51.1115731 970.108198,50.99824 969.730705,50.884907 C969.357473,50.7741304 968.983389,50.6659101 968.608453,50.565359 C968.25908,50.4724771 967.909708,50.3804473 967.558631,50.2960866 C967.032868,50.1691195 966.506253,50.0532301 965.978786,49.9475663 C965.631118,49.8776918 965.282597,49.8163386 964.933225,49.7566896 C964.538689,49.6885194 964.143302,49.6271662 963.747915,49.5709257 C963.295435,49.506164 962.842103,49.4490714 962.386214,49.3987959 C961.97208,49.3536331 961.557094,49.3144352 961.142107,49.2820544 C961.026218,49.2726809 960.911181,49.2581948 960.794439,49.2496735 L960.791031,49.246265 L960.716043,49.2420043 C960.544766,49.2309267 960.372636,49.2232575 960.201358,49.2138841 L959.427626,49.1712777 L959.598904,49 L957.952593,49.0903256 L956.306281,49 L956.477559,49.1712777 L955.703827,49.2138841 C955.535106,49.2232575 955.365532,49.2300745 955.195959,49.2411522 L955.113302,49.246265 L955.109894,49.2496735 C954.9923,49.2581948 954.876411,49.2726809 954.758817,49.2820544 C954.346387,49.3144352 953.934809,49.3536331 953.523231,49.3987959 C953.061378,49.4490714 952.602933,49.5070161 952.145341,49.57263 C951.755066,49.6280183 951.365643,49.6885194 950.976221,49.7558375 C950.624292,49.8163386 950.271511,49.8785439 949.922139,49.9484184 C949.397228,50.0532301 948.873169,50.1691195 948.350815,50.2943824 C947.995477,50.3795952 947.641844,50.4733292 947.288211,50.5679154 C946.922648,50.6659101 946.55879,50.7707219 946.194931,50.8789421 C945.810621,50.9931273 945.427164,51.1090167 945.047115,51.2342795 L945.036037,51.2240539 L944.145563,51.5384892 L941.902763,52.3292639 L941.959003,52.3846522 C941.603666,52.5320704 941.248328,52.6794885 940.895547,52.83628 C940.786475,52.8857035 940.678255,52.9376833 940.569182,52.9879588 C939.906227,53.2896121 939.248384,53.6100122 938.597358,53.9457506 C938.560717,53.9644974 938.524075,53.9832443 938.488286,54.0019911 C936.692852,54.934219 934.945138,55.9934141 933.255368,57.1761677 L933.238326,57.1591251 L932.200434,57.9294488 L930.804648,58.9639321 L930.843846,59.00313 C929.240141,60.2804698 927.696085,61.6719947 926.217643,63.1725921 C926.203157,63.1870782 926.189523,63.2007123 926.175889,63.2151985 C925.416643,63.9855221 924.676996,64.783966 923.956096,65.6088259 L923.922011,65.5755929 L922.878154,66.841855 L922.872189,66.848672 L922.007279,67.8993458 L922.034547,67.9266139 C920.622571,69.7263081 919.299217,71.6342226 918.072152,73.6375754 C918.002278,73.7517606 917.931551,73.8642414 917.861677,73.9792787 C917.465437,74.6345651 917.08198,75.300077 916.707043,75.9749624 C916.692557,76.0013783 916.677219,76.0252379 916.663585,76.0499496 L916.625239,76.012456 L915.687898,77.8428268 L915.189404,78.8134006 L915.205594,78.8304431 C915.095669,79.0545528 914.995118,79.2863316 914.886898,79.5121455 C914.603139,80.1052266 914.316824,80.6957512 914.050108,81.2999099 C913.656425,82.1886794 913.280637,83.0910829 912.921891,84.0054162 C912.78129,84.3658663 912.655175,84.7339856 912.519687,85.0978442 C912.268309,85.7735817 912.02034,86.4527277 911.788561,87.1420992 C911.668411,87.500845 911.55593,87.8629994 911.441745,88.2225974 C911.414477,88.3086623 911.386356,88.393023 911.359088,88.4782358 L911.311369,88.4305166 L910.628815,90.9161739 L910.397888,91.756372 L910.403001,91.7606327 C910.362951,91.909755 910.324605,92.0580253 910.286259,92.2045913 C910.263252,92.2966211 910.240244,92.3877988 910.217237,92.4806808 C910.025508,93.234814 909.853378,93.9582706 909.700847,94.6587198 L909.694882,94.6646847 L909.603705,95.1001221 L908.5607,100.037351 L908.78481,99.8123897 C908.781401,99.841362 908.777141,99.8694822 908.77288,99.8984546 C908.729422,100.206073 908.678294,100.50943 908.639096,100.819605 C908.535136,101.61464 908.450776,102.418197 908.37238,103.223458 L908.299097,103.151027 L908.121854,106.506707 C908.121854,106.507559 908.121854,106.508411 908.121854,106.509263 L908.115037,106.625153 C908.090326,107.098936 908.06817,107.572719 908.052832,108.049911 C908.018747,108.961687 908,109.797625 908,110.590956 C908,111.385991 908.018747,112.221929 908.052832,113.133706 C908.06817,113.609193 908.090326,114.083829 908.115037,114.557612 L908.121854,114.673501 C908.121854,114.673501 908.121854,114.674353 908.121854,114.675205 L908.299097,118.032589 L908.37238,117.959306 C908.450776,118.763715 908.535136,119.567272 908.639096,120.362307 C908.679146,120.67589 908.730274,120.986065 908.774584,121.297944 C908.778845,121.321803 908.782253,121.346515 908.785662,121.370375 L908.561552,121.147117 L909.603705,126.083494 L909.694882,126.519784 L909.700847,126.524897 C909.853378,127.222789 910.024656,127.944542 910.215533,128.696971 C910.239392,128.792409 910.263252,128.887847 910.287964,128.982434 C910.325457,129.127295 910.363803,129.274714 910.403001,129.422132 L910.397888,129.427244 L910.628815,130.26659 L911.311369,132.7531 L911.359088,132.705381 C911.384652,132.784629 911.411068,132.863876 911.436632,132.943976 C911.553374,133.3138 911.668411,133.684476 911.791969,134.051743 C912.017783,134.721515 912.258935,135.381062 912.503496,136.038905 C912.644949,136.421511 912.777881,136.808377 912.926152,137.186722 C913.282341,138.095942 913.655573,138.992381 914.0467,139.875185 C914.316824,140.487013 914.606548,141.086059 914.893715,141.686809 C914.999379,141.906658 915.098226,142.133324 915.205594,142.352321 L915.189404,142.368512 L915.687898,143.34079 L916.625239,145.17116 L916.663585,145.132815 C916.678071,145.158379 916.693409,145.18309 916.707896,145.208654 C917.08198,145.882687 917.465437,146.547347 917.860825,147.201781 C917.930699,147.318523 918.00313,147.432708 918.074709,147.54945 C919.300921,149.551098 920.623423,151.457308 922.034547,153.25615 L922.007279,153.284271 L922.872189,154.334092 C922.874745,154.336649 922.87645,154.338353 922.878154,154.340909 L923.922011,155.608876 L923.956096,155.573938 C924.677848,156.39965 925.418347,157.198094 926.176741,157.96927 C926.190375,157.982904 926.203157,157.995686 926.215939,158.00932 C927.696085,159.509917 929.240141,160.901442 930.844698,162.179634 L930.804648,162.219684 L932.200434,163.254168 L933.238326,164.024491 L933.255368,164.006597 C934.946842,165.191054 936.695409,166.25025 938.491694,167.18333 C938.524927,167.200372 938.55816,167.216563 938.590541,167.233605 C939.245828,167.5719 939.905375,167.893152 940.572591,168.19651 C940.679959,168.245933 940.786475,168.297061 940.894695,168.346484 C941.013141,168.398464 941.132439,168.450444 941.251737,168.501572 L956.985427,206.563571 L956.985427,237.041631 L947.782445,255.024939 L947.782445,304.091319 L969.187047,304.091319 L969.187047,255.024939 L959.983213,237.041631 L959.983213,206.584022 L977.494443,167.141575 C979.262608,166.218721 980.983907,165.172308 982.649817,164.006597 L982.666007,164.024491 L983.703899,163.254168 L985.100537,162.219684 L985.060487,162.179634 C986.671861,160.89633 988.222734,159.497136 989.707993,157.989721 C989.707993,157.989721 989.707993,157.989721 989.707993,157.989721 C990.474056,157.211728 991.221372,156.406467 991.949089,155.573938 L991.983174,155.608024 L993.032144,154.33324 L993.897906,153.283419 L993.870638,153.25615 C995.28517,151.452196 996.611081,149.54002 997.840702,147.531555 C997.906316,147.425039 997.972782,147.319375 998.037543,147.212007 C998.437191,146.551608 998.824058,145.880131 999.202402,145.199281 C999.215184,145.176273 999.228818,145.15497 999.240748,145.132815 L999.279094,145.17116 L1000.21729,143.34079 L1000.71578,142.368512 L1000.69874,142.352321 C1000.80355,142.140141 1000.89899,141.91944 1001.00124,141.705556 C1001.29182,141.097137 1001.5858,140.492126 1001.86019,139.871777 C1002.24961,138.991529 1002.62284,138.096794 1002.97733,137.19013 C1003.1273,136.80582 1003.26279,136.413841 1003.40595,136.025271 C1003.64881,135.372541 1003.8874,134.718959 1004.11151,134.054299 C1004.23592,133.684476 1004.35181,133.311244 1004.47026,132.938012 C1004.49497,132.859616 1004.52053,132.782072 1004.54524,132.704529 L1004.59382,132.7531 L1005.27552,130.26659 L1005.50644,129.427244 L1005.50133,129.422132 C1005.54053,129.273861 1005.57973,129.125591 1005.61722,128.981582 C1005.64108,128.886995 1005.66494,128.793261 1005.6888,128.698675 C1005.87968,127.946246 1006.05095,127.223642 1006.20434,126.524897 L1006.20945,126.519784 L1006.30063,126.083494 L1007.34278,121.147117 L1007.11952,121.370375 C1007.12208,121.348219 1007.12549,121.326064 1007.1289,121.303909 C1007.17321,120.989473 1007.22519,120.677595 1007.26609,120.362307 C1007.37005,119.567272 1007.45441,118.763715 1007.53281,117.958454 L1007.60438,118.030033 L1007.78333,114.673501 L1007.7893,114.557612 C1007.81316,114.093202 1007.83616,113.62794 1007.8515,113.160974 Z" id="Tennis"></path>
                </g>
            </g>
        </g>
    </g>
</svg>